<svg xmlns="http://www.w3.org/2000/svg" viewBox="0 0 267.57 111.34"><defs><style>.b0700624-432c-4faf-8b44-9a418f7d233e{fill:#1d1d1b;}.f318f027-0f3f-40e3-a379-ace8a6d4d0cd{fill:none;}</style></defs><g id="e557ed82-ed31-4c08-9079-2ed65028ccc2" data-name="Capa 2"><g id="ba34e02d-9f79-423a-a49c-6348cd5f0cb1" data-name="Capa 1"><path class="b0700624-432c-4faf-8b44-9a418f7d233e" d="M98.83,33.78A18.32,18.32,0,0,0,94,27.84,22.64,22.64,0,0,0,86.78,24,27.83,27.83,0,0,0,78,22.6a29.19,29.19,0,0,0-8.32,1.17,32.09,32.09,0,0,0-7.75,3.43,31.65,31.65,0,0,0-2.84,1.94c1.1.71,1,1.79,1.46,3a32.84,32.84,0,0,1,4-2.56,30.29,30.29,0,0,1,6.78-2.71,25.38,25.38,0,0,1,6.56-.89,26.61,26.61,0,0,1,7.78,1.14A20.58,20.58,0,0,1,92,30.24a15.32,15.32,0,0,1,4.31,4.91,12.89,12.89,0,0,1,1.57,6.35,14.68,14.68,0,0,1-.94,6.08c-.86,1.93-2.52,4.85-6.17,5.28-1.52.22-1.25,1.71-1.11,2.21.2.7,1,1,2,.83,4.34-.91,6.67-4.45,7.67-6.8a19.79,19.79,0,0,0,1.24-7.64,16.34,16.34,0,0,0-1.78-7.68"/><path class="b0700624-432c-4faf-8b44-9a418f7d233e" d="M100.36,67.52a1,1,0,0,0-.93-.55,1.14,1.14,0,0,0-.65.21,1.36,1.36,0,0,0-.49.64,32.09,32.09,0,0,1-4,6.46,34.36,34.36,0,0,1-5.79,5.77,29.84,29.84,0,0,1-7.09,4.14,20.76,20.76,0,0,1-8,1.55A27.84,27.84,0,0,1,67.2,85a24.53,24.53,0,0,1-6-2.3,25,25,0,0,1-5.36-3.92,24.1,24.1,0,0,1-4.34-5.62,29,29,0,0,1-2.89-7.41,38.23,38.23,0,0,1-1-9.32c0-2.42-.22-1.5.13-3.67-.89,0-1.84-.32-2.65-.32a14.11,14.11,0,0,0-.1,4,57.7,57.7,0,0,0,1.12,10.31A33.72,33.72,0,0,0,49.24,75a27.17,27.17,0,0,0,17.31,13.4,28.89,28.89,0,0,0,6.94.88,22.33,22.33,0,0,0,8.62-1.69,31.87,31.87,0,0,0,7.71-4.51,38.11,38.11,0,0,0,6.31-6.32,34.68,34.68,0,0,0,4.4-7.1,2.1,2.1,0,0,0,.14-.47,3.83,3.83,0,0,0,0-.47,2.11,2.11,0,0,0-.34-1.21"/><path class="b0700624-432c-4faf-8b44-9a418f7d233e" d="M37.18,56A22.16,22.16,0,0,1,25,52.13c-1.21-.62-2-2.83-1.94-4.5a3.8,3.8,0,0,1,1.61-3.18c0-.16,0-.34,0-.52-.31-.41-.62-.84-.91-1.29l-.08-.12c-1.34-2.77.33-6.43,1.8-8-.09-7.82,4.29-9.82,8.12-10.08l.37-.22c1.78-1.08,3.44-1.71,6.74.72C42.46,23,44.23,22,45.94,22.17a4.63,4.63,0,0,1,3,1.59l.14-.08c2.6-1.34,5,1.36,6.58,3.15a15.46,15.46,0,0,0,1.21,1.27,3.2,3.2,0,0,1,2.91.21c1.21.78,1.86,2.51,1.93,5.12a1.09,1.09,0,0,1,0,.18,21.33,21.33,0,0,1-.92,3.9l.21,0a1.9,1.9,0,0,1,1.73.6,6.75,6.75,0,0,1,1.58,5.16,3.23,3.23,0,0,0,.48.75,10.43,10.43,0,0,1,2.31,6.33,1.06,1.06,0,0,1-.37.87,20.28,20.28,0,0,1-21.36,2.9c-.53-.26-.54-.89-.32-1.66.16-.57.74-.51,1.27-.25a18.36,18.36,0,0,0,18.61-2.26,8.14,8.14,0,0,0-1.83-4.64,3.07,3.07,0,0,1-.9-2.39,4.77,4.77,0,0,0-1-3.29c-.49.09-1,.19-1.43.31A20.66,20.66,0,0,1,47.25,50.52a1,1,0,0,1-1.12-.3A1,1,0,0,1,46,49.07a19.24,19.24,0,0,1,12.38-11A20.22,20.22,0,0,0,59.6,33.4c-.08-2.54-.75-3.17-1-3.3S58,30,57.4,30.19c-1.15.49-2.11-.59-3.31-1.94s-2.72-3.06-3.84-2.74l0,0,0,.06c2.11,6.22,3.21,13-3,20.23a1.08,1.08,0,0,1-1,.34,1.05,1.05,0,0,1-.8-.75c-2.4-8.52-1.82-14.13,2.24-20a2.81,2.81,0,0,0-1.86-1.17c-.81-.07-2.19.36-4.13,2.75a1.08,1.08,0,0,1-.73.39,1.06,1.06,0,0,1-.78-.24c-3-2.47-3.83-2-5.09-1.19-.21.13-.43.26-.66.38a1,1,0,0,1-.46.13c-4.5.22-6.52,2.88-6.33,8.37a1.08,1.08,0,0,1-.37.84c-.93.8-2.47,3.67-1.76,5.61a8.24,8.24,0,0,1,3.48-3.25l.13-.26C29.77,36.39,31,34,33,33.44a3.39,3.39,0,0,1,2.82.57l.08.06c.19.15.4.31.61.49a21.15,21.15,0,0,1,9,15.74,1.06,1.06,0,0,1-.93,1.17C37,52.4,30.88,50.54,26.37,46a.72.72,0,0,1-.2.09,1.47,1.47,0,0,0-1,1.3,4.06,4.06,0,0,0,.77,2.91l.12.06c8.88,5.84,16.53,2.63,16.61,2.6a1.06,1.06,0,0,1,.85,2A17.05,17.05,0,0,1,37.18,56M26.91,43.36c5.54,6.6,12.79,6.47,16.3,6.11-1.15-7.82-5.45-11.19-8.06-13.24l-.6-.47a1.26,1.26,0,0,0-1-.26c-1.06.29-2,2.23-2.52,3.27l-.31.62a1,1,0,0,1-.49.46,5.73,5.73,0,0,0-3.27,3.51m30-2.46a16.5,16.5,0,0,0-7.66,6.55,18.33,18.33,0,0,0,7.66-6.55M48.69,27.73c-2.75,4.44-3.25,8.8-1.78,15.05,3.86-5.5,3.16-10.58,1.78-15"/><path class="b0700624-432c-4faf-8b44-9a418f7d233e" d="M118.41,81.37l2.12,2.55a3.79,3.79,0,0,1-1.42,3.24,11.72,11.72,0,0,1-2.54,1.59,6.93,6.93,0,0,1-2.88.61,6.21,6.21,0,0,1-4-1.37,11.34,11.34,0,0,1-2.86-3.6,23.47,23.47,0,0,1-1.9-5.06,52.68,52.68,0,0,1-1.12-5.78q-.39-3-.52-5.73c-.09-1.85-.14-3.5-.14-4.93q0-3.12.22-6.45c.14-2.23.37-4.4.68-6.53a59.8,59.8,0,0,1,1.19-6,29.47,29.47,0,0,1,1.73-5,11.4,11.4,0,0,1,2.29-3.41,4.1,4.1,0,0,1,2.94-1.26,4.66,4.66,0,0,1,2.33.58,4.47,4.47,0,0,1,1.74,1.87,11.58,11.58,0,0,1,1.1,3.37,28.05,28.05,0,0,1,.39,5.08,38.21,38.21,0,0,1-.82,7.66,62.44,62.44,0,0,1-2.24,8,78.57,78.57,0,0,1-3.32,8c-1.28,2.66-2.66,5.25-4.12,7.77a23.37,23.37,0,0,0,2.63,7.4q1.64,2.69,4,2.68a4.74,4.74,0,0,0,3-1.16c1-.78,1.35-1.11,1.59-4m-12.32-18.3c0,1.58,0,3.11.12,4.57s.18,2.85.31,4.18c1.09-2,2.14-4.13,3.13-6.39s1.87-4.55,2.63-6.86a61.7,61.7,0,0,0,1.82-6.9,33.89,33.89,0,0,0,.68-6.54,19,19,0,0,0-.74-6.27c-.5-1.26-1.16-1.89-2-1.89A2.08,2.08,0,0,0,110.45,38,12.71,12.71,0,0,0,109,41a35.2,35.2,0,0,0-1.22,4.38c-.37,1.68-.67,3.49-.92,5.41s-.44,4-.59,6.05-.21,4.19-.21,6.26"/><path class="b0700624-432c-4faf-8b44-9a418f7d233e" d="M216,81.18l2.13,2.55A3.79,3.79,0,0,1,216.68,87a11.48,11.48,0,0,1-2.54,1.59,6.86,6.86,0,0,1-2.88.61,6.23,6.23,0,0,1-4-1.37,11.67,11.67,0,0,1-2.86-3.59,23.77,23.77,0,0,1-1.9-5.07,50.41,50.41,0,0,1-1.11-5.78q-.39-3-.53-5.73c-.09-1.85-.14-3.5-.14-4.93,0-2.08.08-4.23.22-6.46s.37-4.39.69-6.52a57.66,57.66,0,0,1,1.19-6,28.65,28.65,0,0,1,1.72-5,11.59,11.59,0,0,1,2.29-3.41A4.1,4.1,0,0,1,209.73,34a4.76,4.76,0,0,1,2.33.57,4.56,4.56,0,0,1,1.74,1.88,11.29,11.29,0,0,1,1.1,3.37,28.05,28.05,0,0,1,.39,5.08,37.49,37.49,0,0,1-.82,7.66,62.37,62.37,0,0,1-2.23,7.95,78.67,78.67,0,0,1-3.33,8q-1.92,4-4.11,7.77a23.38,23.38,0,0,0,2.62,7.4q1.65,2.68,4,2.69a4.73,4.73,0,0,0,3-1.17c1-.78,1.35-1.1,1.59-4m-12.32-18.3q0,2.38.12,4.56c.08,1.46.18,2.86.31,4.19,1.09-2,2.14-4.13,3.13-6.39s1.87-4.55,2.63-6.86a59.61,59.61,0,0,0,1.82-6.9,33.12,33.12,0,0,0,.68-6.54,18.68,18.68,0,0,0-.74-6.27c-.5-1.26-1.16-1.89-2-1.89A2.07,2.07,0,0,0,208,37.85a12.3,12.3,0,0,0-1.43,2.93,35.2,35.2,0,0,0-1.22,4.38c-.36,1.68-.67,3.49-.92,5.41s-.44,4-.58,6-.22,4.19-.22,6.26"/><path class="b0700624-432c-4faf-8b44-9a418f7d233e" d="M146.29,75.29l-.63,1.46q-.48,1.11-1.23,2.55c-.5,1-5,14.49-10.91,8.57a9.68,9.68,0,0,1-2.21-4.06,12.36,12.36,0,0,1-3.1,4,5.74,5.74,0,0,1-3.6,1.46,5.56,5.56,0,0,1-2.57-.59,5.64,5.64,0,0,1-2-1.65,8.18,8.18,0,0,1-1.24-2.51,10.5,10.5,0,0,1-.44-3.14,16.28,16.28,0,0,1,1-6A14,14,0,0,1,122,71a10.69,10.69,0,0,1,3.47-2.62,8.73,8.73,0,0,1,3.66-.87,6.35,6.35,0,0,1,2.18.37,9.78,9.78,0,0,1,1.71.81,6.15,6.15,0,0,1,1.09.81,5.52,5.52,0,0,1,.42.41,2,2,0,0,1,.42,1.17,1.74,1.74,0,0,1-.42,1.16,1.27,1.27,0,0,1-1,.5,1.33,1.33,0,0,1-1-.48l-.34-.32a5,5,0,0,0-.73-.51,5.87,5.87,0,0,0-1.09-.45,4.91,4.91,0,0,0-1.44-.2,6.07,6.07,0,0,0-2.53.61,7.14,7.14,0,0,0-2.45,1.9,10.74,10.74,0,0,0-1.86,3.22,12.78,12.78,0,0,0-.75,4.6,9.62,9.62,0,0,0,.15,1.68,5.18,5.18,0,0,0,.54,1.55,3.19,3.19,0,0,0,1,1.13,2.87,2.87,0,0,0,1.61.44,3.27,3.27,0,0,0,1.59-.53A5.74,5.74,0,0,0,128,83.77a12.25,12.25,0,0,0,1.5-2.74,15.76,15.76,0,0,0,.93-3.93,1.65,1.65,0,0,1,.5-1,1.36,1.36,0,0,1,1-.42,1.2,1.2,0,0,1,.94.48,1.87,1.87,0,0,1,.44,1.09c0,.56.07,1.33.15,2.33a16.14,16.14,0,0,0,.52,3c3,7.71,7.24-3.44,7.67-4.25s.82-1.6,1.16-2.36.61-1.41.84-2c.12-.32,2.8.29,2.8.7a1.66,1.66,0,0,1-.12.61"/><path class="b0700624-432c-4faf-8b44-9a418f7d233e" d="M173.32,77.42l-.49.9c-.25.45-.57,1-1,1.58s-.87,1.23-1.41,1.9a14.92,14.92,0,0,1-1.79,1.85,9.55,9.55,0,0,1-2.09,1.4,5.23,5.23,0,0,1-2.31.55,7.26,7.26,0,0,1-3.28-.68,9,9,0,0,1-2.2-1.52,11.24,11.24,0,0,1-3.35,4.2,9.14,9.14,0,0,1-2.22,1.23,6.83,6.83,0,0,1-2.4.43,5.85,5.85,0,0,1-3.88-1.32,10.36,10.36,0,0,1-2.66-3.53,22.18,22.18,0,0,1-1.66-5.16,59.52,59.52,0,0,1-.91-6.16q-.31-3.23-.39-6.53t-.08-6.27c0-3.79.12-7.07.34-9.84a61.21,61.21,0,0,1,.91-7.08,25.41,25.41,0,0,1,1.34-4.73,11.19,11.19,0,0,1,1.62-2.83,4.67,4.67,0,0,1,1.76-1.37,4.48,4.48,0,0,1,1.75-.37,3.92,3.92,0,0,1,2.44.81,6.37,6.37,0,0,1,1.79,2.26,13.11,13.11,0,0,1,1.1,3.5,25.17,25.17,0,0,1,.37,4.51,40.46,40.46,0,0,1-.86,8.1,75.2,75.2,0,0,1-2.22,8.35c-.9,2.77-1.91,5.5-3,8.17s-2.23,5.22-3.32,7.61a23.94,23.94,0,0,0,.67,3.43,12.54,12.54,0,0,0,1.16,2.9,6.76,6.76,0,0,0,1.67,2,3.56,3.56,0,0,0,2.24.75,4.31,4.31,0,0,0,2.38-.72,6.89,6.89,0,0,0,1.94-1.87,9.28,9.28,0,0,0,1.29-2.62,31.75,31.75,0,0,0,.58-5.42,10.56,10.56,0,0,0-.21-2.08,6.64,6.64,0,0,0-.63-1.87,4.34,4.34,0,0,0-1.06-1.34,2.35,2.35,0,0,0-1.53-.51,1.69,1.69,0,0,0-1,.28,1.81,1.81,0,0,0-.56.62,1.69,1.69,0,0,0-.22.68,3.73,3.73,0,0,0,0,.44,2.58,2.58,0,0,0,.22,1,2.17,2.17,0,0,0,.86.91,1.41,1.41,0,0,1,.63,1.21,1.21,1.21,0,0,1-.43,1,1.39,1.39,0,0,1-.95.37,2.16,2.16,0,0,1-1.32-.44,4.15,4.15,0,0,1-1-1.12,6.06,6.06,0,0,1-.63-1.45,5.08,5.08,0,0,1-.22-1.43,5,5,0,0,1,.37-2,4.71,4.71,0,0,1,1-1.54,4.62,4.62,0,0,1,3.26-1.34,5.21,5.21,0,0,1,2.78.73,6.29,6.29,0,0,1,2,2,8.93,8.93,0,0,1,1.15,2.75,13.18,13.18,0,0,1,.37,3.12c0,.61-.15,3.62-.22,4.21a7,7,0,0,0,.48.77,4.5,4.5,0,0,0,.89.92,6,6,0,0,0,1.35.77,4.66,4.66,0,0,0,1.82.32,3.21,3.21,0,0,0,1.85-.67c.63-.45,7.35-5.7,7.35-5.34a1.82,1.82,0,0,1-.14.59m-28.81-4.73c.85-2.06,1.7-4.21,2.57-6.47s1.66-4.57,2.35-6.92a67.45,67.45,0,0,0,1.71-7.11,38.38,38.38,0,0,0,.68-7.08c0-.88,0-1.8-.13-2.77a15.79,15.79,0,0,0-.47-2.66,6.34,6.34,0,0,0-.91-2,1.75,1.75,0,0,0-1.47-.81,1.39,1.39,0,0,0-.77.38,4.71,4.71,0,0,0-1,1.36,16.17,16.17,0,0,0-1,2.7,33.22,33.22,0,0,0-.95,4.38c-.29,1.77-.52,3.91-.71,6.4s-.28,5.43-.28,8.8c0,1.12,0,2.27,0,3.43s.06,2.27.09,3.32.08,2,.13,2.89.1,1.61.15,2.17"/><path class="b0700624-432c-4faf-8b44-9a418f7d233e" d="M169.49,83.5a6,6,0,0,0,1.79,2,4.56,4.56,0,0,0,2.66.75,4.74,4.74,0,0,0,2.94-1,10.88,10.88,0,0,0,2.4-2.65,21.79,21.79,0,0,0,1.95-3.66c.57-1.35,2.17-4.86,2.17-4.86a1.32,1.32,0,0,1,.5-.13,1.06,1.06,0,0,1,.91.51,2,2,0,0,1,.34,1.12,1.9,1.9,0,0,1,0,.37,2.33,2.33,0,0,1-.1.32,33,33,0,0,1-5,9.86,8,8,0,0,1-6.08,3.4,6.46,6.46,0,0,1-3.76-1.1,8.69,8.69,0,0,1-2.61-2.84,13.63,13.63,0,0,1-1.51-3.94,19.91,19.91,0,0,1-.5-4.39,19,19,0,0,1,.41-4A11.92,11.92,0,0,1,167.2,70a6.57,6.57,0,0,1,1.85-2.15,4,4,0,0,1,2.35-.77,3,3,0,0,1,1.5.41,4.42,4.42,0,0,1,1.34,1.16,6.32,6.32,0,0,1,1,1.83,7.74,7.74,0,0,1,.36,2.45,11.89,11.89,0,0,1-.46,3.32,12.42,12.42,0,0,1-1.27,2.88,13,13,0,0,1-1.93,2.46,14.74,14.74,0,0,1-2.41,1.94m-1-2.81a8.08,8.08,0,0,0,1.86-1.41,9.75,9.75,0,0,0,1.43-1.9,10.11,10.11,0,0,0,.92-2.17,8.27,8.27,0,0,0,.33-2.31,3.28,3.28,0,0,0-.49-2,1.42,1.42,0,0,0-1.16-.66,2,2,0,0,0-1.51.64,4.78,4.78,0,0,0-1,1.68,10.27,10.27,0,0,0-.58,2.31,17.76,17.76,0,0,0-.18,2.51,11.84,11.84,0,0,0,.12,1.64,15.34,15.34,0,0,0,.28,1.63"/><path class="b0700624-432c-4faf-8b44-9a418f7d233e" d="M219.6,83.41a8,8,0,0,0,1.58,1.74,5.54,5.54,0,0,0,3.89.93,7.14,7.14,0,0,0,4.75-3,25.48,25.48,0,0,0,2.28-3.76c.85-1.92,1.88-4.21,1.88-4.21l.24-1s.79,2.59.79,3c0,.14.63.44.4,1a25.33,25.33,0,0,1-4.16,7.6,9.84,9.84,0,0,1-5.31,3.48,7.92,7.92,0,0,1-5.44-.83,11,11,0,0,1-4.62-6.69,19.89,19.89,0,0,1-.49-4.39,18.4,18.4,0,0,1,.41-4A11.92,11.92,0,0,1,217,70a6.68,6.68,0,0,1,1.85-2.15,4,4,0,0,1,2.36-.77,3,3,0,0,1,1.5.41A4.38,4.38,0,0,1,224,68.62a5.87,5.87,0,0,1,1,1.83,7.7,7.7,0,0,1,.36,2.45,11.53,11.53,0,0,1-.46,3.32,12.42,12.42,0,0,1-1.27,2.88,13,13,0,0,1-1.93,2.46,12,12,0,0,1-2.08,1.85m-1.31-2.72a7.87,7.87,0,0,0,1.86-1.41,9.37,9.37,0,0,0,1.43-1.9,9.66,9.66,0,0,0,.93-2.17,8.27,8.27,0,0,0,.33-2.31,3.28,3.28,0,0,0-.5-2,1.42,1.42,0,0,0-1.15-.66,2,2,0,0,0-1.52.64,4.93,4.93,0,0,0-1,1.68,10.9,10.9,0,0,0-.58,2.3,18,18,0,0,0-.18,2.52,11.84,11.84,0,0,0,.12,1.64c.07.57.17,1.12.28,1.63"/><path class="b0700624-432c-4faf-8b44-9a418f7d233e" d="M204.31,78c-.28.57-.63,1.24-1.05,2s-.9,1.59-1.44,2.42a27.13,27.13,0,0,1-1.8,2.51,16.9,16.9,0,0,1-2.17,2.22,11.41,11.41,0,0,1-2.49,1.59,6.58,6.58,0,0,1-2.81.61,6,6,0,0,1-4-1.37,11.41,11.41,0,0,1-2.8-3.59,22.94,22.94,0,0,1-1.86-5.06,49.56,49.56,0,0,1-1.09-5.78c-.26-2-.43-3.86-.52-5.72s-.13-3.49-.13-4.92c0-2.08.07-4.22.21-6.45s.36-4.39.67-6.52a57.54,57.54,0,0,1,1.17-6,28.07,28.07,0,0,1,1.69-5,11.21,11.21,0,0,1,2.24-3.41,4,4,0,0,1,2.87-1.26,4.5,4.5,0,0,1,2.28.58A4.42,4.42,0,0,1,195,36.7a11.86,11.86,0,0,1,1.07,3.36,28.23,28.23,0,0,1,.38,5.08,38.71,38.71,0,0,1-.8,7.65,63.63,63.63,0,0,1-2.19,7.94,79.08,79.08,0,0,1-3.25,8c-1.26,2.66-2.6,5.24-4,7.76a23.9,23.9,0,0,0,2.57,7.39q1.61,2.69,3.87,2.69a4.58,4.58,0,0,0,3-1.17,16,16,0,0,0,2.61-2.76,27.35,27.35,0,0,0,2.09-3.24c.6-1.1,1.06-2,1.4-2.65a1.39,1.39,0,0,1,.53-.57A1.46,1.46,0,0,1,203,76a1.33,1.33,0,0,1,1.05.45,1.46,1.46,0,0,1,.41,1,1.74,1.74,0,0,1-.16.59M185.11,63.1q0,2.37.12,4.56c.07,1.45.17,2.85.3,4.18,1.07-2,2.1-4.13,3.07-6.39s1.82-4.54,2.57-6.85A63.48,63.48,0,0,0,193,51.71a34.55,34.55,0,0,0,.67-6.53,19.17,19.17,0,0,0-.73-6.26c-.49-1.26-1.14-1.89-2-1.89a2,2,0,0,0-1.55,1.07A13,13,0,0,0,188,41a35,35,0,0,0-1.18,4.37q-.54,2.52-.91,5.41c-.24,1.92-.43,3.94-.57,6s-.21,4.19-.21,6.26"/><path class="b0700624-432c-4faf-8b44-9a418f7d233e" d="M236.94,78.11a8.09,8.09,0,0,1-2.19-.3,1.07,1.07,0,0,1-.78-.94,6.51,6.51,0,0,1,0-.77A8.19,8.19,0,0,1,241.1,68l.17,0a6.08,6.08,0,0,0,2.17-.7,1.05,1.05,0,0,1,1,0A1.09,1.09,0,0,1,245,68a7.71,7.71,0,0,1,.19,1.25,5.85,5.85,0,0,1,0,.62,8.29,8.29,0,0,1-8.3,8.27m-.84-2.22a5.93,5.93,0,0,0,.84.06,6.13,6.13,0,0,0,6.13-6.11v-.07a8.05,8.05,0,0,1-1.53.34l-.17,0a6,6,0,0,0-5.27,5.76"/><rect class="f318f027-0f3f-40e3-a379-ace8a6d4d0cd" width="267.57" height="111.34"/></g></g></svg>