<svg xmlns="http://www.w3.org/2000/svg" viewBox="0 0 600 600"><defs><style>.f14c000c-fb66-4e68-bf1d-85ad04c0295e{fill:none;}</style></defs><g id="b44985a6-9c98-4a43-9545-6d40f5d682bb" data-name="Capa 2"><g id="ad68f986-a027-4ab1-8199-8b0467550999" data-name="Logo"><rect class="f14c000c-fb66-4e68-bf1d-85ad04c0295e" width="600" height="600"/><path d="M300,93.47c67.27,0,75.23.26,101.8,1.47,24.56,1.12,37.9,5.22,46.78,8.67a83.51,83.51,0,0,1,47.81,47.81c3.45,8.88,7.55,22.22,8.67,46.78,1.21,26.57,1.47,34.53,1.47,101.8s-.26,75.23-1.47,101.8c-1.12,24.56-5.22,37.9-8.67,46.78a83.51,83.51,0,0,1-47.81,47.81c-8.88,3.45-22.22,7.55-46.78,8.67-26.56,1.21-34.53,1.47-101.8,1.47s-75.24-.26-101.8-1.47c-24.56-1.12-37.9-5.22-46.78-8.67a83.51,83.51,0,0,1-47.81-47.81c-3.45-8.88-7.55-22.22-8.67-46.78-1.21-26.57-1.47-34.53-1.47-101.8s.26-75.23,1.47-101.8c1.12-24.56,5.22-37.9,8.67-46.78a83.51,83.51,0,0,1,47.81-47.81c8.88-3.45,22.22-7.55,46.78-8.67,26.57-1.21,34.53-1.47,101.8-1.47m0-45.39c-68.42,0-77,.29-103.87,1.52S151,55.08,135,61.3A128.85,128.85,0,0,0,61.3,135c-6.22,16-10.48,34.34-11.7,61.15S48.08,231.58,48.08,300s.29,77,1.52,103.87S55.08,449,61.3,465A128.8,128.8,0,0,0,135,538.69c16,6.23,34.34,10.49,61.15,11.71s35.45,1.52,103.87,1.52,77-.29,103.87-1.52S449,544.92,465,538.69A128.74,128.74,0,0,0,538.69,465c6.23-16,10.49-34.34,11.71-61.15s1.52-35.45,1.52-103.87-.29-77-1.52-103.87S544.92,151,538.69,135A128.8,128.8,0,0,0,465,61.3c-16-6.22-34.34-10.48-61.15-11.7S368.42,48.08,300,48.08Z"/><path d="M300,170.64A129.36,129.36,0,1,0,429.36,300,129.35,129.35,0,0,0,300,170.64ZM300,384a84,84,0,1,1,84-84A84,84,0,0,1,300,384Z"/><circle cx="434.48" cy="165.52" r="30.23"/></g></g></svg>