<svg xmlns="http://www.w3.org/2000/svg" viewBox="0 0 158.74 158.74"><defs><style>.a9aeb837-9ee3-443e-a07c-b0db251f1c85{fill:none;}</style></defs><g id="baa5f73b-9c4a-493e-9404-cc51a9332941" data-name="Capa 2"><g id="b2c148ed-73e4-4ae9-9c90-6c7c4b3d58c4" data-name="Capa 1"><rect class="a9aeb837-9ee3-443e-a07c-b0db251f1c85" width="158.74" height="158.74"/><path d="M108.15,67.12a16.47,16.47,0,0,0-11.23-3.94h-9.3a3.13,3.13,0,0,0-3,3.15,3.16,3.16,0,0,0,.88,2.2,3.06,3.06,0,0,0,2.16.94h9.3c8.86,0,9.81,6.6,9.81,9.43s-1,9.43-9.81,9.43h-6.2V75.76a3.17,3.17,0,0,0-.91-2.22,3.07,3.07,0,0,0-4.38,0,3.17,3.17,0,0,0-.91,2.22V91.48a3.1,3.1,0,0,0,.24,1.2,3,3,0,0,0,.67,1,3.23,3.23,0,0,0,1,.68,3,3,0,0,0,1.19.24h9.3a16.4,16.4,0,0,0,11.23-3.94c3.13-2.82,4.78-6.89,4.78-11.78S111.28,69.94,108.15,67.12Z"/><path d="M64.37,62.87a3.08,3.08,0,0,0-1.2.22,3.36,3.36,0,0,0-1,.68,3.2,3.2,0,0,0-.68,3.46,3.24,3.24,0,0,0,.68,1,3.36,3.36,0,0,0,1,.68,3.08,3.08,0,0,0,1.2.22,9.53,9.53,0,0,1,6.1,2.21,9.84,9.84,0,0,1,2.37,12.12,9.65,9.65,0,0,1-4.79,4.41,9.48,9.48,0,0,1-6.47.32,9.62,9.62,0,0,1-5.2-3.91A9.85,9.85,0,0,1,57.58,72a3.16,3.16,0,0,0,0-4.44,3.08,3.08,0,0,0-4.39,0,15.87,15.87,0,0,0-3.43,5.19,16.18,16.18,0,0,0-1.2,6.14,15.81,15.81,0,1,0,15.81-16Z"/><path d="M132.06,62.87a3.08,3.08,0,0,0-1.2.22,3.36,3.36,0,0,0-1,.68,3.2,3.2,0,0,0-.68,3.46,3.24,3.24,0,0,0,.68,1,3.36,3.36,0,0,0,1,.68,3.08,3.08,0,0,0,1.2.22,9.55,9.55,0,0,1,6.1,2.21,9.84,9.84,0,0,1,2.37,12.12,9.65,9.65,0,0,1-4.79,4.41,9.48,9.48,0,0,1-6.47.32,9.62,9.62,0,0,1-5.2-3.91,9.85,9.85,0,0,1,1.2-12.3,3.16,3.16,0,0,0,0-4.44,3.07,3.07,0,0,0-4.38,0,15.9,15.9,0,0,0-3.44,5.19,16.38,16.38,0,0,0-1.2,6.14,15.81,15.81,0,1,0,15.81-16Z"/><path d="M14.07,78.9a3,3,0,0,0-1.18.24,3.09,3.09,0,0,0-1.68,1.7A3.1,3.1,0,0,0,11,82.05v9.63a3.17,3.17,0,0,0,.9,2.23,3.08,3.08,0,0,0,4.39,0,3.17,3.17,0,0,0,.9-2.23V82.05a3.17,3.17,0,0,0-.9-2.23,3.1,3.1,0,0,0-2.2-.92Z"/><path d="M41.57,63.33a3.07,3.07,0,0,0-1.92,0,3.11,3.11,0,0,0-1.54,1.16L27.3,79.79,16.49,64.5a3.19,3.19,0,0,0-.88-.84,2.93,2.93,0,0,0-1.14-.43,2.85,2.85,0,0,0-1.2,0,3,3,0,0,0-1.11.5,3.21,3.21,0,0,0-1.25,2A3.34,3.34,0,0,0,11,67a3.14,3.14,0,0,0,.5,1.12L24.77,87a3.14,3.14,0,0,0,1.11,1,3.06,3.06,0,0,0,2.84,0,3.11,3.11,0,0,0,1.1-1h0l7.71-10.9V91.68a3.17,3.17,0,0,0,.9,2.23,3.08,3.08,0,0,0,4.39,0,3.17,3.17,0,0,0,.9-2.23V66.33a3.11,3.11,0,0,0-.59-1.85,3.14,3.14,0,0,0-1.56-1.15Z"/></g></g></svg>