<svg id="f3bb635d-f9e8-4eaa-aa18-ca0831407a08" data-name="Layer 1" xmlns="http://www.w3.org/2000/svg" viewBox="0 0 500 500"><defs><style>.ad4f47b4-a186-49ec-a34a-b8f1de6ebf3c{opacity:0.61;}.bacab1dd-129a-471b-b830-4ce444032f44{fill:#fff;}</style></defs><g id="e8d0abe4-468e-4647-9019-2bb242aa692b" data-name="watermark"><g id="a3028813-3259-4097-8ec6-4e75ed51ada8" data-name="watermark" class="ad4f47b4-a186-49ec-a34a-b8f1de6ebf3c"><polygon class="bacab1dd-129a-471b-b830-4ce444032f44" points="213.76 461.17 208.2 474.02 205.27 474.02 199.73 461.17 202.94 461.17 206.85 470.35 210.81 461.17 213.76 461.17"/><path class="bacab1dd-129a-471b-b830-4ce444032f44" d="M223.51,469.74H216a2.62,2.62,0,0,0,2.82,2,3.35,3.35,0,0,0,2.48-1l1.52,1.65a5.14,5.14,0,0,1-4.07,1.6c-3.41,0-5.63-2.15-5.63-5.09a5,5,0,0,1,5.26-5.08,4.89,4.89,0,0,1,5.14,5.12c0,.22,0,.53-.05.77M216,468.07h4.87a2.47,2.47,0,0,0-4.87,0"/><path class="bacab1dd-129a-471b-b830-4ce444032f44" d="M224.74,468.93c0-3,2.29-5.08,5.5-5.08a4.53,4.53,0,0,1,4.42,2.52l-2.22,1.19a2.45,2.45,0,0,0-2.22-1.36,2.74,2.74,0,0,0,0,5.47,2.43,2.43,0,0,0,2.22-1.36l2.22,1.21a4.57,4.57,0,0,1-4.42,2.5c-3.21,0-5.5-2.11-5.5-5.09"/><path class="bacab1dd-129a-471b-b830-4ce444032f44" d="M242.83,473.39a4,4,0,0,1-2.33.63c-2.33,0-3.69-1.2-3.69-3.54v-4.06h-1.52v-2.2h1.52v-2.41h2.86v2.41h2.46v2.2h-2.46v4a1.15,1.15,0,0,0,1.23,1.3,2,2,0,0,0,1.16-.36Z"/><path class="bacab1dd-129a-471b-b830-4ce444032f44" d="M262.47,464v2.64c-.23,0-.42,0-.64,0a2.43,2.43,0,0,0-2.62,2.76V474h-2.86v-9.88h2.73v1.31a4,4,0,0,1,3.39-1.45"/><path class="bacab1dd-129a-471b-b830-4ce444032f44" d="M263.3,472.53l1-2.24a7.55,7.55,0,0,0,4.24,1.34c1.76,0,2.47-.59,2.47-1.38,0-2.4-7.46-.75-7.46-5.52,0-2.18,1.76-4,5.41-4a8.65,8.65,0,0,1,4.46,1.14l-.92,2.26a7.23,7.23,0,0,0-3.56-1c-1.76,0-2.44.66-2.44,1.46,0,2.37,7.47.74,7.47,5.45,0,2.15-1.78,4-5.45,4a9.16,9.16,0,0,1-5.23-1.49"/><path class="bacab1dd-129a-471b-b830-4ce444032f44" d="M285.43,469.74H278a2.63,2.63,0,0,0,2.83,2,3.35,3.35,0,0,0,2.47-1l1.53,1.65a5.18,5.18,0,0,1-4.08,1.6c-3.41,0-5.63-2.15-5.63-5.09a5,5,0,0,1,5.26-5.08,4.89,4.89,0,0,1,5.14,5.12c0,.22,0,.53-.05.77m-7.51-1.67h4.87a2.47,2.47,0,0,0-4.87,0"/><path class="bacab1dd-129a-471b-b830-4ce444032f44" d="M297,469.74h-7.47a2.62,2.62,0,0,0,2.82,2,3.35,3.35,0,0,0,2.48-1l1.52,1.65a5.14,5.14,0,0,1-4.07,1.6c-3.41,0-5.63-2.15-5.63-5.09a5,5,0,0,1,5.26-5.08,4.89,4.89,0,0,1,5.14,5.12c0,.22,0,.53-.05.77m-7.51-1.67h4.86a2.47,2.47,0,0,0-4.86,0"/><polygon class="bacab1dd-129a-471b-b830-4ce444032f44" points="303.21 470.14 301.83 471.5 301.83 474.02 298.97 474.02 298.97 460.4 301.83 460.4 301.83 468.11 306.02 464.14 309.43 464.14 305.32 468.33 309.8 474.02 306.33 474.02 303.21 470.14"/><path class="bacab1dd-129a-471b-b830-4ce444032f44" d="M256.6,475.36h0l-2.86-2.86a5.9,5.9,0,0,1-1.53,1.28l-.29.2,3,3a1.17,1.17,0,1,0,1.65-1.65"/><path class="bacab1dd-129a-471b-b830-4ce444032f44" d="M250,463.24a1.32,1.32,0,0,1,.8-.28h.12a1.24,1.24,0,0,0-.76-.25,1.29,1.29,0,0,0-1,.46H249a.58.58,0,0,0,.06-.26.57.57,0,0,0-.34-.52.85.85,0,0,1,.13.45.81.81,0,0,1-.08.34,5.39,5.39,0,1,0,1.2,0m-2,1.42a2.41,2.41,0,0,1,1.2.31,2.34,2.34,0,0,1,1.3-.39,2.36,2.36,0,0,1,1.78.8,2.47,2.47,0,0,0-2.86-.28l-.22.15-.21-.13a2.45,2.45,0,0,0-1.26-.34,2.37,2.37,0,0,0-.85.15,2.38,2.38,0,0,1,1.12-.27m3.79,4.44a2.63,2.63,0,0,1,.18,1,2.78,2.78,0,0,1-5.55,0,2.63,2.63,0,0,1,.18-1,2.17,2.17,0,0,1,1.13-4,2.15,2.15,0,0,1,1.47.58,2.11,2.11,0,0,1,1.46-.58,2.17,2.17,0,0,1,1.13,4"/><path class="bacab1dd-129a-471b-b830-4ce444032f44" d="M251.67,467.06a.91.91,0,1,1-.91-.9.88.88,0,0,1,.29,0,.45.45,0,0,0,0,.2.5.5,0,0,0,.49.5l.15,0a1.1,1.1,0,0,1,0,.18"/><path class="bacab1dd-129a-471b-b830-4ce444032f44" d="M248.26,467.06a.69.69,0,1,1-.69-.68.54.54,0,0,1,.22,0,.37.37,0,0,0,.34.52h.11a.59.59,0,0,1,0,.13"/><rect class="bacab1dd-129a-471b-b830-4ce444032f44" x="242.91" y="467.83" width="0.62" height="0.62"/><rect class="bacab1dd-129a-471b-b830-4ce444032f44" x="254.83" y="467.83" width="0.62" height="0.62"/><path class="bacab1dd-129a-471b-b830-4ce444032f44" d="M255.21,468.08h-.14a5.89,5.89,0,1,0-11.78,0h-.14a6,6,0,0,1,12.06,0"/><rect class="bacab1dd-129a-471b-b830-4ce444032f44" x="248.87" y="461.81" width="0.62" height="0.62"/><rect class="bacab1dd-129a-471b-b830-4ce444032f44" x="244.95" y="462.05" width="8.45" height="0.14"/><path class="bacab1dd-129a-471b-b830-4ce444032f44" d="M245.17,462.15a.19.19,0,0,1-.19.2.2.2,0,0,1,0-.4.19.19,0,0,1,.19.2"/><path class="bacab1dd-129a-471b-b830-4ce444032f44" d="M253.6,462.15a.2.2,0,1,1-.2-.2.2.2,0,0,1,.2.2"/><path class="bacab1dd-129a-471b-b830-4ce444032f44" d="M314.36,473.41a1.19,1.19,0,0,1-2.37,0A1.19,1.19,0,0,1,314.36,473.41Z"/><path class="bacab1dd-129a-471b-b830-4ce444032f44" d="M161.74,466.55l1.77,6.09,1.86-6.09h2.21l-2.82,8.14h-2.33l-.84-2.4-.72-2.7-.72,2.7-.84,2.4H157l-2.84-8.14h2.23l1.86,6.09,1.75-6.09Z"/><path class="bacab1dd-129a-471b-b830-4ce444032f44" d="M176.71,466.55l1.78,6.09,1.85-6.09h2.21l-2.82,8.14H177.4l-.84-2.4-.72-2.7-.72,2.7-.84,2.4H172l-2.84-8.14h2.24l1.85,6.09,1.76-6.09Z"/><path class="bacab1dd-129a-471b-b830-4ce444032f44" d="M191.69,466.55l1.77,6.09,1.85-6.09h2.22l-2.82,8.14h-2.33l-.84-2.4-.72-2.7-.73,2.7-.83,2.4h-2.33l-2.84-8.14h2.23l1.85,6.09,1.76-6.09Z"/><path class="bacab1dd-129a-471b-b830-4ce444032f44" d="M200.91,473.52a1.19,1.19,0,0,1-2.37,0A1.19,1.19,0,0,1,200.91,473.52Z"/><path class="bacab1dd-129a-471b-b830-4ce444032f44" d="M322.71,473.41a4.17,4.17,0,0,1-3.12,1.28,4.29,4.29,0,1,1,0-8.57,3.83,3.83,0,0,1,2.92,1.2l-1.26,1.33a2.45,2.45,0,0,0-1.62-.64,2.28,2.28,0,0,0-2.33,2.4,2.2,2.2,0,0,0,2.29,2.36,2.47,2.47,0,0,0,1.78-.67Z"/><path class="bacab1dd-129a-471b-b830-4ce444032f44" d="M331.8,470.47a4.21,4.21,0,1,1-4.23-4.21A4.08,4.08,0,0,1,331.8,470.47Zm-6.41,0a2.21,2.21,0,1,0,4.4,0,2.29,2.29,0,0,0-2.2-2.39A2.22,2.22,0,0,0,325.39,470.47Z"/><path class="bacab1dd-129a-471b-b830-4ce444032f44" d="M338.57,474.69v-4.33c0-1.07-.56-2-1.66-2a1.85,1.85,0,0,0-1.72,2v4.33h-2v-8.11H335l.15,1a2.35,2.35,0,0,1,2.14-1.12,2.43,2.43,0,0,1,2.39,1.51,2.93,2.93,0,0,1,2.71-1.48c2.3,0,3.43,1.42,3.43,3.84v4.37h-2v-4.37c0-1.06-.45-2-1.53-2a1.85,1.85,0,0,0-1.76,2v4.33Z"/></g><g class="ad4f47b4-a186-49ec-a34a-b8f1de6ebf3c"><path class="bacab1dd-129a-471b-b830-4ce444032f44" d="M346,431.3a2.15,2.15,0,0,0-2.19-2.14c-.92,0-.83.12-.84-.87s0-2.19,0-3.29a1.42,1.42,0,0,0-.36-1c-2.35-2.66-4.68-5.34-7-8a5,5,0,0,0-.42-.36H316.53a1.64,1.64,0,0,0-1.14,1.71q0,5.61,0,11.24c0,.56,0,.59-.55.55a2.29,2.29,0,0,0-2.5,2.49c0,3.48,0,7,0,10.43a2.22,2.22,0,0,0,2.46,2.45c.58,0,.58,0,.58.6v6.66a1.56,1.56,0,0,0,1.77,1.77h24A1.55,1.55,0,0,0,343,451.8c0-2.25,0-4.51,0-6.76,0-.52,0-.52.52-.52a3.13,3.13,0,0,0,.81-.06,2.13,2.13,0,0,0,1.7-2.07C346,438.7,346,435,346,431.3Zm-28.45-14.14h16c.55,0,.55,0,.55.56v6.73c0,.81.25,1.06,1.06,1.06h5.73c.46,0,.48,0,.48.49,0,.88,0,1.77,0,2.66,0,.48,0,.5-.5.5H317.54c-.55,0-.55,0-.55-.56V417.73C317,417.17,317,417.16,317.54,417.16Zm23.28,34.42H317.56c-.57,0-.58,0-.58-.58,0-2,0-4,0-6,0-.46,0-.49.47-.49h23.41c.48,0,.5,0,.5.51,0,2,0,4,0,6C341.38,451.57,341.37,451.58,340.82,451.58Z"/><rect class="bacab1dd-129a-471b-b830-4ce444032f44" x="327.42" y="417.05" width="1.76" height="1.05"/><rect class="bacab1dd-129a-471b-b830-4ce444032f44" x="325.66" y="418.11" width="1.76" height="1.05"/><rect class="bacab1dd-129a-471b-b830-4ce444032f44" x="327.42" y="419.16" width="1.76" height="1.05"/><rect class="bacab1dd-129a-471b-b830-4ce444032f44" x="325.66" y="420.22" width="1.76" height="1.05"/><rect class="bacab1dd-129a-471b-b830-4ce444032f44" x="327.42" y="421.27" width="1.76" height="1.05"/><rect class="bacab1dd-129a-471b-b830-4ce444032f44" x="325.66" y="422.32" width="1.76" height="1.05"/><rect class="bacab1dd-129a-471b-b830-4ce444032f44" x="327.42" y="423.38" width="1.76" height="1.05"/><rect class="bacab1dd-129a-471b-b830-4ce444032f44" x="325.66" y="424.43" width="1.76" height="1.05"/><rect class="bacab1dd-129a-471b-b830-4ce444032f44" x="327.42" y="425.49" width="1.76" height="1.05"/><rect class="bacab1dd-129a-471b-b830-4ce444032f44" x="325.66" y="426.54" width="1.76" height="1.05"/><rect class="bacab1dd-129a-471b-b830-4ce444032f44" x="327.42" y="427.59" width="1.76" height="1.05"/><rect class="bacab1dd-129a-471b-b830-4ce444032f44" x="325.66" y="428.65" width="1.76" height="1.05"/><path class="bacab1dd-129a-471b-b830-4ce444032f44" d="M187.64,431.3a2.15,2.15,0,0,0-2.19-2.14c-.93,0-.83.12-.84-.87s0-2.19,0-3.29a1.42,1.42,0,0,0-.36-1c-2.35-2.66-4.68-5.34-7-8a5,5,0,0,0-.42-.36H158.18a1.64,1.64,0,0,0-1.14,1.71q0,5.61,0,11.24c0,.56,0,.59-.55.55a2.29,2.29,0,0,0-2.5,2.49c0,3.48,0,7,0,10.43a2.22,2.22,0,0,0,2.45,2.45c.59,0,.59,0,.59.6,0,2.22,0,4.44,0,6.66a1.56,1.56,0,0,0,1.77,1.77h24a1.55,1.55,0,0,0,1.75-1.75V445c0-.52,0-.52.52-.52a3.16,3.16,0,0,0,.81-.06,2.13,2.13,0,0,0,1.7-2.07Q187.66,436.86,187.64,431.3Zm-28.45-14.14h16c.54,0,.55,0,.55.56v6.73c0,.81.25,1.06,1.06,1.06h5.73c.46,0,.48,0,.48.49,0,.88,0,1.77,0,2.66,0,.48,0,.5-.5.5H159.19c-.55,0-.55,0-.55-.56V417.73C158.64,417.17,158.64,417.16,159.19,417.16Zm23.28,34.42H159.21c-.57,0-.58,0-.58-.58,0-2,0-4,0-6,0-.46,0-.49.47-.49h23.41c.48,0,.5,0,.5.51v6C183,451.57,183,451.58,182.47,451.58Z"/><path class="bacab1dd-129a-471b-b830-4ce444032f44" d="M159.78,440.67v-7.9h2.78a3,3,0,0,1,1.05.18,2.86,2.86,0,0,1,.86.52,2.41,2.41,0,0,1,.78,1.8,2.36,2.36,0,0,1-.78,1.8,2.51,2.51,0,0,1-.86.52,3,3,0,0,1-1.05.18h-1.29v2.9Zm2.8-4.31a1.08,1.08,0,0,0,1.18-1.1,1.09,1.09,0,0,0-.07-.4.91.91,0,0,0-.22-.35,1.18,1.18,0,0,0-.37-.24,1.38,1.38,0,0,0-.52-.09h-1.31v2.18Z"/><path class="bacab1dd-129a-471b-b830-4ce444032f44" d="M166.31,432.77H168l3.18,5.3h.08l-.08-1.53v-3.77h1.47v7.9h-1.56l-3.35-5.59h-.09l.09,1.52v4.07h-1.47v-7.9Z"/><path class="bacab1dd-129a-471b-b830-4ce444032f44" d="M177.92,436.33h3.87a2.29,2.29,0,0,1,.06.32c0,.13,0,.25,0,.38a4.46,4.46,0,0,1-.23,1.43,3.36,3.36,0,0,1-.73,1.21,3.68,3.68,0,0,1-1.27.87,4.57,4.57,0,0,1-3.31,0,4.36,4.36,0,0,1-1.32-.86,4.28,4.28,0,0,1-.89-1.31,4.05,4.05,0,0,1-.33-1.65,4.12,4.12,0,0,1,1.22-3,4.36,4.36,0,0,1,1.32-.86,4.41,4.41,0,0,1,1.63-.3,4.21,4.21,0,0,1,1.71.33,3.86,3.86,0,0,1,1.3.91l-1,1a2.72,2.72,0,0,0-.86-.63,2.8,2.8,0,0,0-1.14-.21,2.68,2.68,0,0,0-1,.19,2.45,2.45,0,0,0-.85.55,2.57,2.57,0,0,0-.58.85,2.9,2.9,0,0,0-.22,1.12,2.87,2.87,0,0,0,.22,1.12,2.61,2.61,0,0,0,.58.86,2.74,2.74,0,0,0,1.9.73,2.8,2.8,0,0,0,1.06-.18,2.4,2.4,0,0,0,.74-.47,1.61,1.61,0,0,0,.38-.5,2.74,2.74,0,0,0,.25-.68h-2.48v-1.27Z"/><path class="bacab1dd-129a-471b-b830-4ce444032f44" d="M224,431.3a2.15,2.15,0,0,0-2.19-2.14c-.92,0-.83.12-.83-.87s0-2.19,0-3.29a1.42,1.42,0,0,0-.36-1l-7-8a5,5,0,0,0-.42-.36H194.56a1.62,1.62,0,0,0-1.13,1.71V428.6c0,.56,0,.59-.55.55a2.29,2.29,0,0,0-2.5,2.49c.05,3.48,0,7,0,10.43a2.21,2.21,0,0,0,2.45,2.45c.58,0,.58,0,.58.6v6.66a1.56,1.56,0,0,0,1.77,1.77h24A1.54,1.54,0,0,0,221,451.8c0-2.25,0-4.51,0-6.76,0-.52,0-.52.52-.52a3.05,3.05,0,0,0,.8-.06,2.13,2.13,0,0,0,1.7-2.07C224,438.7,224,435,224,431.3Zm-28.45-14.14h16c.55,0,.55,0,.55.56v6.73c0,.81.25,1.06,1.06,1.06h5.73c.46,0,.48,0,.48.49,0,.88,0,1.77,0,2.66,0,.48,0,.5-.5.5H195.57c-.55,0-.55,0-.55-.56V417.73C195,417.17,195,417.16,195.57,417.16Zm23.28,34.42H195.59c-.57,0-.57,0-.57-.58v-6c0-.46,0-.49.48-.49h23.41c.47,0,.49,0,.49.51q0,3,0,6C219.41,451.57,219.4,451.58,218.85,451.58Z"/><path class="bacab1dd-129a-471b-b830-4ce444032f44" d="M205.11,432.77h1.7l3,7.9h-1.65l-.65-1.89h-3l-.65,1.89h-1.65Zm1.89,4.65-.71-2-.29-1h-.08l-.29,1-.71,2Z"/><path class="bacab1dd-129a-471b-b830-4ce444032f44" d="M211.33,434.54a.94.94,0,0,1-.36-.08.81.81,0,0,1-.49-.49.85.85,0,0,1,0-.72.81.81,0,0,1,.49-.49.94.94,0,0,1,.36-.08.9.9,0,0,1,.66.27.92.92,0,0,1,0,1.32A.9.9,0,0,1,211.33,434.54Zm-.71,6.13v-5.4h1.44v5.4Z"/><path class="bacab1dd-129a-471b-b830-4ce444032f44" d="M261,431.3a2.14,2.14,0,0,0-2.18-2.14c-.93,0-.84.12-.84-.87s0-2.19,0-3.29a1.37,1.37,0,0,0-.36-1c-2.34-2.66-4.68-5.34-7-8a4.79,4.79,0,0,0-.41-.36H231.59a1.63,1.63,0,0,0-1.14,1.71c0,3.74,0,7.49,0,11.24,0,.56,0,.59-.55.55a2.29,2.29,0,0,0-2.49,2.49c0,3.48,0,7,0,10.43a2.21,2.21,0,0,0,2.45,2.45c.58,0,.58,0,.58.6v6.66a1.56,1.56,0,0,0,1.77,1.77h24A1.55,1.55,0,0,0,258,451.8V445c0-.52,0-.52.52-.52a3.16,3.16,0,0,0,.81-.06,2.12,2.12,0,0,0,1.69-2.07Q261.07,436.86,261,431.3Zm-28.45-14.14h16c.55,0,.56,0,.56.56v6.73c0,.81.25,1.06,1.06,1.06H256c.46,0,.48,0,.48.49v2.66c0,.48,0,.5-.5.5H232.59c-.55,0-.55,0-.55-.56V417.73C232,417.17,232.05,417.16,232.59,417.16Zm23.29,34.42H232.62c-.58,0-.58,0-.58-.58v-6c0-.46,0-.49.48-.49h23.41c.48,0,.5,0,.5.51v6C256.43,451.57,256.43,451.58,255.88,451.58Z"/><path class="bacab1dd-129a-471b-b830-4ce444032f44" d="M236.36,440.85a3.12,3.12,0,0,1-1-.15,2.73,2.73,0,0,1-.85-.43,2.8,2.8,0,0,1-.67-.7,3.28,3.28,0,0,1-.45-1l1.4-.55a2.09,2.09,0,0,0,.54,1,1.35,1.35,0,0,0,1,.4,1.72,1.72,0,0,0,.84-.24,1.06,1.06,0,0,0,.27-.29.91.91,0,0,0,.09-.41,1,1,0,0,0-.07-.4.88.88,0,0,0-.26-.33,2.51,2.51,0,0,0-.48-.3q-.28-.14-.72-.3l-.48-.17a3.14,3.14,0,0,1-.65-.3,2.88,2.88,0,0,1-.59-.45,2.49,2.49,0,0,1-.44-.62,1.92,1.92,0,0,1-.17-.81,2,2,0,0,1,.19-.87,2.21,2.21,0,0,1,.51-.71,2.5,2.5,0,0,1,.81-.47,3.11,3.11,0,0,1,1-.17,2.9,2.9,0,0,1,1,.16,2.5,2.5,0,0,1,.74.41,2.07,2.07,0,0,1,.49.54,2.49,2.49,0,0,1,.28.57l-1.31.55a1.47,1.47,0,0,0-.41-.6,1.12,1.12,0,0,0-.8-.26,1.35,1.35,0,0,0-.8.22.7.7,0,0,0-.32.59.72.72,0,0,0,.31.6,3.06,3.06,0,0,0,1,.48l.5.17a5.2,5.2,0,0,1,.86.38,2.69,2.69,0,0,1,.68.51,2.3,2.3,0,0,1,.43.68,2.39,2.39,0,0,1,.15.88,2.21,2.21,0,0,1-.25,1.06,2.27,2.27,0,0,1-.64.73,2.45,2.45,0,0,1-.87.43A3.19,3.19,0,0,1,236.36,440.85Z"/><path class="bacab1dd-129a-471b-b830-4ce444032f44" d="M239.52,432.77h1.61l1.63,4.76.29,1h.08l.31-1,1.7-4.76h1.61l-2.88,7.9h-1.56Z"/><path class="bacab1dd-129a-471b-b830-4ce444032f44" d="M251.1,436.33H255a2.4,2.4,0,0,1,.05.32,2.43,2.43,0,0,1,0,.38,4.21,4.21,0,0,1-.24,1.43,3.33,3.33,0,0,1-.72,1.21,3.88,3.88,0,0,1-1.27.87,4.5,4.5,0,0,1-1.69.31,4.4,4.4,0,0,1-1.62-.31,4,4,0,0,1-2.22-2.17,4.05,4.05,0,0,1-.33-1.65,4.12,4.12,0,0,1,.33-1.65,4,4,0,0,1,2.22-2.17,4.4,4.4,0,0,1,1.62-.3,4.21,4.21,0,0,1,1.71.33,3.77,3.77,0,0,1,1.3.91l-1,1a2.62,2.62,0,0,0-.86-.63,3,3,0,0,0-2.16,0,2.64,2.64,0,0,0-.85.55,2.72,2.72,0,0,0-.58.85,2.9,2.9,0,0,0-.21,1.12,2.87,2.87,0,0,0,.21,1.12,2.63,2.63,0,0,0,.59.86,2.7,2.7,0,0,0,1.89.73,2.76,2.76,0,0,0,1.06-.18,2.58,2.58,0,0,0,.75-.47,1.78,1.78,0,0,0,.38-.5,2.74,2.74,0,0,0,.25-.68H251.1v-1.27Z"/><path class="bacab1dd-129a-471b-b830-4ce444032f44" d="M297.3,431.3a2.15,2.15,0,0,0-2.19-2.14c-.92,0-.83.12-.83-.87s0-2.19,0-3.29a1.42,1.42,0,0,0-.36-1c-2.34-2.66-4.68-5.34-7-8a5,5,0,0,0-.42-.36H267.84a1.62,1.62,0,0,0-1.13,1.71c0,3.74,0,7.49,0,11.24,0,.56,0,.59-.55.55a2.29,2.29,0,0,0-2.5,2.49c0,3.48,0,7,0,10.43a2.21,2.21,0,0,0,2.45,2.45c.58,0,.58,0,.58.6v6.66a1.56,1.56,0,0,0,1.77,1.77h24a1.54,1.54,0,0,0,1.75-1.75c0-2.25,0-4.51,0-6.76,0-.52,0-.52.52-.52a3.05,3.05,0,0,0,.8-.06,2.13,2.13,0,0,0,1.7-2.07Q297.33,436.86,297.3,431.3Zm-28.45-14.14h16c.55,0,.55,0,.55.56,0,2.25,0,4.49,0,6.73,0,.81.24,1.06,1.06,1.06h5.73c.45,0,.47,0,.48.49v2.66c0,.48,0,.5-.51.5H268.85c-.55,0-.55,0-.55-.56V417.73C268.3,417.17,268.3,417.16,268.85,417.16Zm23.29,34.42H268.87c-.57,0-.57,0-.57-.58v-6c0-.46,0-.49.48-.49h23.41c.48,0,.5,0,.5.51v6C292.69,451.57,292.68,451.58,292.14,451.58Z"/><path class="bacab1dd-129a-471b-b830-4ce444032f44" d="M273,434.18V436h3.16v1.42H273v1.83h3.51v1.41h-5v-7.9h5v1.41Z"/><path class="bacab1dd-129a-471b-b830-4ce444032f44" d="M277.85,440.67v-7.9h2.78a3,3,0,0,1,1.05.18,2.75,2.75,0,0,1,.86.52,2.41,2.41,0,0,1,.78,1.8,2.36,2.36,0,0,1-.78,1.8,2.42,2.42,0,0,1-.86.52,3,3,0,0,1-1.05.18h-1.29v2.9Zm2.8-4.31a1.07,1.07,0,0,0,1.18-1.1,1.09,1.09,0,0,0-.07-.4.91.91,0,0,0-.22-.35,1.08,1.08,0,0,0-.37-.24,1.38,1.38,0,0,0-.52-.09h-1.31v2.18Z"/><path class="bacab1dd-129a-471b-b830-4ce444032f44" d="M286.8,440.85a3.12,3.12,0,0,1-1-.15,2.62,2.62,0,0,1-.85-.43,2.83,2.83,0,0,1-.68-.7,3.28,3.28,0,0,1-.45-1l1.4-.55a2.28,2.28,0,0,0,.54,1,1.39,1.39,0,0,0,1,.4,1.41,1.41,0,0,0,.45-.07,1.19,1.19,0,0,0,.38-.17.82.82,0,0,0,.27-.29.8.8,0,0,0,.1-.41.87.87,0,0,0-.08-.4.85.85,0,0,0-.25-.33,2.87,2.87,0,0,0-.48-.3q-.29-.14-.72-.3L286,437a3.33,3.33,0,0,1-.64-.3,2.63,2.63,0,0,1-.59-.45,2.49,2.49,0,0,1-.44-.62,1.92,1.92,0,0,1-.17-.81,2.12,2.12,0,0,1,.18-.87,2.41,2.41,0,0,1,.52-.71,2.5,2.5,0,0,1,.81-.47,3.11,3.11,0,0,1,1-.17,2.9,2.9,0,0,1,1,.16,2.5,2.5,0,0,1,.74.41,2.27,2.27,0,0,1,.49.54,2.49,2.49,0,0,1,.28.57l-1.32.55a1.35,1.35,0,0,0-.4-.6,1.12,1.12,0,0,0-.8-.26,1.35,1.35,0,0,0-.8.22.68.68,0,0,0-.32.59.72.72,0,0,0,.31.6,3.06,3.06,0,0,0,1,.48l.49.17a5,5,0,0,1,.87.38,2.64,2.64,0,0,1,.67.51,2.12,2.12,0,0,1,.43.68,2.39,2.39,0,0,1,.15.88,2.1,2.1,0,0,1-.25,1.06,2.13,2.13,0,0,1-.63.73,2.53,2.53,0,0,1-.87.43A3.24,3.24,0,0,1,286.8,440.85Z"/><path class="bacab1dd-129a-471b-b830-4ce444032f44" d="M321.39,439.17l4-5h-3.83v-1.41h5.56v1.5l-4,5h4v1.41H321.4v-1.5Z"/><path class="bacab1dd-129a-471b-b830-4ce444032f44" d="M328.41,432.77h1.49v7.9h-1.49Z"/><path class="bacab1dd-129a-471b-b830-4ce444032f44" d="M331.49,440.67v-7.9h2.77a3.06,3.06,0,0,1,1.06.18,2.81,2.81,0,0,1,.85.52,2.28,2.28,0,0,1,.58.79,2.37,2.37,0,0,1,.21,1,2.45,2.45,0,0,1-.21,1,2.34,2.34,0,0,1-.58.78,2.47,2.47,0,0,1-.85.52,3.06,3.06,0,0,1-1.06.18H333v2.9Zm2.8-4.31a1.08,1.08,0,0,0,1.18-1.1,1.34,1.34,0,0,0-.07-.4.93.93,0,0,0-.23-.35,1,1,0,0,0-.37-.24,1.33,1.33,0,0,0-.51-.09H333v2.18Z"/></g><g class="ad4f47b4-a186-49ec-a34a-b8f1de6ebf3c"><path class="bacab1dd-129a-471b-b830-4ce444032f44" d="M300.13,433.27h9.07v2.24h-9.07Zm0,3.87h9.07v2.24h-9.07Z"/></g><g class="ad4f47b4-a186-49ec-a34a-b8f1de6ebf3c"><path class="bacab1dd-129a-471b-b830-4ce444032f44" d="M156.76,478.88h1.6a2,2,0,1,1,0,3.95h-1.6Zm1.58,3.58a1.61,1.61,0,1,0,0-3.22h-1.17v3.22Z"/><path class="bacab1dd-129a-471b-b830-4ce444032f44" d="M165.14,480.85a2.07,2.07,0,1,1,2.07,2A2,2,0,0,1,165.14,480.85Zm3.73,0a1.66,1.66,0,1,0-1.66,1.64A1.6,1.6,0,0,0,168.87,480.85Z"/><path class="bacab1dd-129a-471b-b830-4ce444032f44" d="M179.6,478.88l-1.34,3.95h-.44l-1.15-3.37-1.16,3.37h-.44l-1.33-3.95h.43l1.14,3.39,1.18-3.39h.39l1.16,3.41,1.16-3.41Z"/><path class="bacab1dd-129a-471b-b830-4ce444032f44" d="M187.73,478.88v3.95h-.34l-2.54-3.21v3.21h-.42v-3.95h.35l2.54,3.2v-3.2Z"/><path class="bacab1dd-129a-471b-b830-4ce444032f44" d="M193.09,478.88h.42v3.58h2.21v.37h-2.63v-3.95Z"/><path class="bacab1dd-129a-471b-b830-4ce444032f44" d="M200.06,480.85a2.08,2.08,0,1,1,2.08,2A2,2,0,0,1,200.06,480.85Zm3.73,0a1.66,1.66,0,1,0-1.65,1.64A1.6,1.6,0,0,0,203.79,480.85Z"/><path class="bacab1dd-129a-471b-b830-4ce444032f44" d="M211.64,481.77h-2.2l-.48,1.05h-.43l1.8-3.94h.41l1.81,3.94h-.44Zm-.16-.34-.94-2.12-.95,2.12Z"/><path class="bacab1dd-129a-471b-b830-4ce444032f44" d="M217.28,478.88h1.61a2,2,0,1,1,0,3.95h-1.61Zm1.58,3.58a1.61,1.61,0,1,0,0-3.22H217.7v3.22Z"/><path class="bacab1dd-129a-471b-b830-4ce444032f44" d="M234,481.77h-2.2l-.47,1.05h-.44l1.81-3.94h.41l1.8,3.94h-.44Zm-.15-.34-.95-2.12-.95,2.12Z"/><path class="bacab1dd-129a-471b-b830-4ce444032f44" d="M239.68,478.88h.42v3.58h2.21v.37h-2.62v-3.95Z"/><path class="bacab1dd-129a-471b-b830-4ce444032f44" d="M247.08,478.88h.42v3.58h2.21v.37h-2.63v-3.95Z"/><path class="bacab1dd-129a-471b-b830-4ce444032f44" d="M260.45,479.24v1.55h2v.36h-2v1.68H260v-3.95h2.71v.36Z"/><path class="bacab1dd-129a-471b-b830-4ce444032f44" d="M267.68,478.88h.42v3.95h-.42Z"/><path class="bacab1dd-129a-471b-b830-4ce444032f44" d="M273.46,478.88h.41v3.58h2.21v.37h-2.62v-3.95Z"/><path class="bacab1dd-129a-471b-b830-4ce444032f44" d="M283.64,482.46v.37h-2.79v-3.95h2.71v.36h-2.29v1.4h2V481h-2v1.46Z"/><path class="bacab1dd-129a-471b-b830-4ce444032f44" d="M294.67,479.24v1.55h2v.36h-2v1.68h-.41v-3.95H297v.36Z"/><path class="bacab1dd-129a-471b-b830-4ce444032f44" d="M301.5,480.85a2.07,2.07,0,1,1,2.08,2A2,2,0,0,1,301.5,480.85Zm3.73,0a1.66,1.66,0,1,0-1.66,1.64A1.6,1.6,0,0,0,305.23,480.85Z"/><path class="bacab1dd-129a-471b-b830-4ce444032f44" d="M313.35,482.83l-.9-1.27h-1.38v1.26h-.41v-3.95h1.47c1,0,1.62.51,1.62,1.35a1.22,1.22,0,0,1-.91,1.24l1,1.35h-.46Zm0-2.6c0-.63-.42-1-1.21-1h-1.05v2h1.05C312.91,481.22,313.33,480.85,313.33,480.23Z"/><path class="bacab1dd-129a-471b-b830-4ce444032f44" d="M322.91,478.88v3.95h-.4v-3.16L321,482.32h-.2l-1.55-2.64v3.14h-.4v-3.94h.34l1.72,2.92,1.69-2.92Z"/><path class="bacab1dd-129a-471b-b830-4ce444032f44" d="M330.74,481.77h-2.2l-.47,1.05h-.43l1.8-3.94h.41l1.81,3.94h-.44Zm-.15-.34-.94-2.12-.95,2.12Z"/><path class="bacab1dd-129a-471b-b830-4ce444032f44" d="M337,479.24h-1.39v-.36h3.19v.36h-1.38v3.59H337v-3.59Z"/><path class="bacab1dd-129a-471b-b830-4ce444032f44" d="M343.06,482.35l.17-.32a2,2,0,0,0,1.3.47c.74,0,1.06-.31,1.06-.69,0-1.09-2.43-.42-2.43-1.88,0-.58.45-1.08,1.45-1.08a2.25,2.25,0,0,1,1.23.35l-.14.33a2.06,2.06,0,0,0-1.09-.33c-.72,0-1,.32-1,.72,0,1.08,2.43.43,2.43,1.86,0,.58-.46,1.08-1.47,1.08A2.19,2.19,0,0,1,343.06,482.35Z"/></g></g><path d="M475,241.44c0-81.07-100.73-147.16-225-147.16S25,160.36,25,241.44c0,2.09,0,7.88,0,8.62,0,86,88,155.66,225,155.66,137.79,0,225-69.64,225-155.65Z"/><path class="bacab1dd-129a-471b-b830-4ce444032f44" d="M466.39,241.37c0,76.43-96.86,138.39-216.34,138.39S33.73,317.8,33.73,241.37,130.57,103,250.05,103,466.39,164.93,466.39,241.37Z"/><path class="bacab1dd-129a-471b-b830-4ce444032f44" d="M178.22,197.7c-.11.22-2.27,2.45-.87,4.25,3.41,4.36,14,6.86,24.62,4.47,6.35-1.43,14.48-7.9,22.37-14.16,8.54-6.79,17-13.58,25.54-16.28,9-2.87,14.8-1.64,18.62-.49,4.19,1.25,9.12,4,17,9.91,14.8,11.13,74.33,63.08,84.6,72.06,8.29-3.74,45.09-19.59,95.12-30.61-4.35-26.67-20.57-51.07-45.17-71-34.29,14.4-76.19,21.92-117.17,1.91-.21-.09-22.39-10.59-44.27-10.07-32.51.75-46.59,14.83-61.5,29.72Z"/><path class="bacab1dd-129a-471b-b830-4ce444032f44" d="M367.67,263.11c-.7-.62-70-61.25-85.69-73.05-9.08-6.81-14.14-8.55-19.44-9.22a26.52,26.52,0,0,0-9.25.88c-7.3,2-16.85,8.37-25.32,15.09-8.78,7-17.05,13.58-24.74,15.3-9.8,2.2-21.78-.4-27.25-4.1a12.06,12.06,0,0,1-4.53-4.95c-2-4.69,1.71-8.43,2.32-9.06l19.12-20.68c2.22-2.22,4.46-4.44,6.76-6.62a123.8,123.8,0,0,0-17.43,3.92c-6.92,1.95-13.59,3.8-20.33,3.8-2.81,0-17.9-2.47-20.75-3.25-17.31-4.74-32.5-9.35-55.18-19.94-27.18,20.23-45.36,45.54-50.61,73.41,3.9,1,10.2,2.9,12.84,3.49,61.51,13.68,80.67,27.77,84.15,30.71a20.35,20.35,0,0,1,31.91,1.87,23.32,23.32,0,0,1,14.67-5.15,27.57,27.57,0,0,1,8.8,1.54,20.24,20.24,0,0,1,12.38,11.18,20.64,20.64,0,0,1,8.56-1.82,25.86,25.86,0,0,1,10.23,2.26c11.34,4.87,13.11,16,12.08,24.41a19.74,19.74,0,0,1,2.44-.13,24.36,24.36,0,0,1,21.47,35.9c3.66,2.06,13,6.72,21.17,5.68,6.54-.83,9-3.06,9.92-4.32.61-.87,1.25-1.88.65-2.6l-17.35-19.28s-2.86-2.7-1.92-3.75,2.74.46,4,1.51c8.84,7.38,19.62,18.52,19.62,18.52.18.11.9,1.52,4.89,2.23,3.44.62,9.51.27,13.72-3.19a21,21,0,0,0,3-3.09,2.31,2.31,0,0,1-.19.16c4.44-5.68-.49-11.43-.49-11.43l-20.27-22.75s-2.89-2.68-1.91-3.76c.88-.93,2.75.48,4,1.53,6.42,5.37,15.49,14.47,24.17,23,1.69,1.25,9.34,6,19.44-.67,6.14-4,7.37-9,7.2-12.7a14.53,14.53,0,0,0-4.28-8.46l-27.68-27.82s-2.92-2.5-1.88-3.77c.83-1.06,2.74.47,4,1.52,8.82,7.38,32.69,29.26,32.69,29.26.33.24,8.58,6.11,18.78-.38a12.55,12.55,0,0,0,6.17-9.92A14.67,14.67,0,0,0,367.67,263.11Z"/><path class="bacab1dd-129a-471b-b830-4ce444032f44" d="M233.41,298.39c-4.29-.05-9,2.5-9.61,2.13-.33-.23.27-1.95.67-2.94s6.07-18-7.71-23.91c-10.54-4.53-17,.57-19.2,2.87-.59.61-.84.55-.91-.22-.21-3.05-1.58-11.34-10.69-14.11-13-4-21.36,5.09-23.48,8.36a15.05,15.05,0,1,0-4.47,12.8c.08.08.11.22.07.51-.63,3.73-1.8,17.31,12.4,22.83,5.7,2.2,10.55.56,14.56-2.25,1.21-.85,1.4-.5,1.23.63-.52,3.5.13,11,10.61,15.21,8,3.23,12.68-.08,15.77-2.94,1.35-1.23,1.71-1,1.78.87a19,19,0,1,0,19-19.84Z"/><path d="M370.34,255.86c-21.34-18.64-70.67-61.52-84-71.55-7.64-5.74-12.84-8.77-17.41-10.13a28.81,28.81,0,0,0-8.55-1.33,35.73,35.73,0,0,0-10.86,1.83c-8.63,2.73-17.24,9.57-25.56,16.18l-.42.34c-7.76,6.15-15.77,12.53-21.83,13.88a36.53,36.53,0,0,1-8.08.91c-6.78,0-12.88-2-15.17-4.89-.38-.48-.14-1.26.75-2.38l.11-.15,18.78-20.24c14.71-14.7,28.6-28.59,60.57-29.33l1.6,0c19.9,0,39.79,8.92,42,10,18.67,9.1,37.93,13.72,57.3,13.74,20.17,0,41-5,62.89-15.07-2.45-2.06-5-4.06-7.61-6-19.23,8.33-37.56,12.55-55.23,12.54-18.05,0-36.1-4.35-53.61-12.9-.92-.44-22.89-10.79-45.75-10.81l-1.81,0c-26.85.63-42,10.17-52.15,18.53-9.9.23-18.44,2.62-26,4.74-6.78,1.89-12.63,3.52-18.34,3.52-2.35,0-6.58-.22-7-.23-6.56-.2-39.63-8.31-65.94-18.27-2.69,1.9-5.27,3.86-7.79,5.86,27.49,11.27,60.93,20,71.49,20.67,2.93.19,6.06.52,9.2.53,7,0,13.94-2,20.69-3.85,4-1.12,8.38-2.33,13-3.22q-1.85,1.82-3.69,3.68L172.84,193c-1.51,1.51-4.76,5.56-2.62,10.54a13.44,13.44,0,0,0,5,5.57c4.55,3.06,12.69,5.13,20.25,5.13a37.1,37.1,0,0,0,8.08-.84c8-1.8,16.38-8.48,25.26-15.54,7.09-5.63,17.15-12.77,24.85-14.87a28.06,28.06,0,0,1,6.92-.95,16.79,16.79,0,0,1,1.79.1c5.09.65,10,2.38,18.79,9,15.65,11.77,85,72.39,85.63,73A13.31,13.31,0,0,1,371,274.32a11.12,11.12,0,0,1-5.53,8.85,16.86,16.86,0,0,1-9.1,2.83,15,15,0,0,1-8-2.33c-.25-.2-24-22-32.73-29.29-1.39-1.15-2.74-2.18-4.11-2.18a2.25,2.25,0,0,0-1.82.85c-1.37,1.69.17,4,2,5.58l27.74,27.87s3.45,3.24,3.83,7.52c.21,4.62-2,8.48-6.59,11.5a17.92,17.92,0,0,1-9.83,3.25,14.37,14.37,0,0,1-7.91-2.4l-4-3.93c-7.27-7.15-14.77-14.55-20.27-19.13-1.34-1.12-2.77-2.14-4.14-2.14a2.34,2.34,0,0,0-1.74.74c-.63.69-1.06,1.95.5,4a13.19,13.19,0,0,0,1.39,1.56l20.25,22.73c.16.2,4.17,5,.45,9.7l-.71.91a19.75,19.75,0,0,1-1.88,1.81c-3.45,2.84-8.07,3.14-9.89,3.14a16.49,16.49,0,0,1-2.74-.23c-2-.36-3.34-.92-4-1.69l-.25-.25c-1.1-1.15-11.3-11.56-19.74-18.6-1.12-.94-2.5-2.11-3.94-2.11a2.38,2.38,0,0,0-1.82.81c-1.68,1.84.84,4.57,1.9,5.57l17.26,19a4,4,0,0,1-.66,1.17c-.62.84-2.71,2.94-9,3.73a19.29,19.29,0,0,1-2.29.14c-6.46,0-13.34-3.14-16.89-5a25.76,25.76,0,0,0-23.29-36.72l-.93,0c.47-6.49-.45-18.77-13.06-24.18a27,27,0,0,0-10.76-2.37,21.9,21.9,0,0,0-7.9,1.43,21.66,21.66,0,0,0-12.6-10.71,28.3,28.3,0,0,0-9.24-1.62,24.39,24.39,0,0,0-14.39,4.6A21.71,21.71,0,0,0,132.23,257c-5.37-4.11-26.68-17.65-83.72-30.6-2.77-.62-9.11-2.44-13-3.58a89.28,89.28,0,0,0-1.46,9.36s10.52,2.52,12.59,3c58.27,12.94,77.53,26.4,80.78,28.94a22.12,22.12,0,0,0-1.68,8.39,21.88,21.88,0,0,0,21.83,21.85,22.4,22.4,0,0,0,4-.36c1.81,8.86,7.61,15.57,16.47,19a21.78,21.78,0,0,0,7.78,1.5,19.51,19.51,0,0,0,5-.62c1.64,4.16,5.32,9.34,13.55,12.68a22.8,22.8,0,0,0,8.58,1.77,19.18,19.18,0,0,0,6.67-1.19,25.69,25.69,0,0,0,42.24,8.16c4.15,2.31,12.94,6.49,21.8,6.51a25.16,25.16,0,0,0,3.3-.22c8.8-1.11,12.9-4.55,14.79-7.23a11.56,11.56,0,0,0,.9-1.47,25.13,25.13,0,0,0,7,1.08c4.8,0,9.42-1.63,14.09-5s7.84-8.05,8.3-12.09a1.13,1.13,0,0,0,0-.18,23.24,23.24,0,0,0,4.71.49,26.24,26.24,0,0,0,14.47-4.59c9-5.89,10.54-13.58,10.39-18.61a23.28,23.28,0,0,0,4.77.5A25,25,0,0,0,370,290.29,19.8,19.8,0,0,0,379.37,275a20.61,20.61,0,0,0-3-12.39c15-6.48,49.41-19,89.89-28.14A93.58,93.58,0,0,0,465,225.1,515.15,515.15,0,0,0,370.34,255.86ZM233.41,335a17.49,17.49,0,0,1-17.59-16.81c0-.81-.11-3-1.93-3a3.38,3.38,0,0,0-2.14,1.12c-2.09,1.95-4.76,3.91-8.64,3.91A15.13,15.13,0,0,1,197.4,319c-10-4.07-10.17-11-9.76-13.74a2.56,2.56,0,0,0-.37-2.11l-.61-.55H186a3.07,3.07,0,0,0-1.75.71,14.68,14.68,0,0,1-8.52,3,13.46,13.46,0,0,1-4.77-.93c-13.22-5.15-12.17-17.63-11.53-21.39a1.79,1.79,0,0,0-.57-1.74l-.94-.77-.87.84a13.74,13.74,0,1,1,4.07-11.63l.47,3.69,2-3.12c.23-.37,5.78-8.76,16-8.75a20.39,20.39,0,0,1,6,.94c8.13,2.48,9.5,9.86,9.72,12.93.14,1.79,1.42,1.87,1.67,1.87a2.2,2.2,0,0,0,1.58-.83,13.89,13.89,0,0,1,10.11-4.26,19.27,19.27,0,0,1,7.57,1.7c12.93,5.55,7.07,22,7,22.15-1.12,2.72-1.16,3.92-.12,4.61l.51.24H224a9.18,9.18,0,0,0,2.5-.65,22,22,0,0,1,6.9-1.52h0a17.63,17.63,0,1,1,0,35.25Z"/></svg>