<svg width="330" height="138" viewBox="0 0 330 138" fill="none" xmlns="http://www.w3.org/2000/svg">
<g clip-path="url(#clip0_268_379)">
<path d="M121.889 41.6615C120.442 38.8272 118.412 36.3308 115.932 34.3356C113.276 32.2295 110.259 30.6247 107.028 29.5996C103.534 28.4475 99.8778 27.8645 96.1991 27.873C92.727 27.8566 89.2708 28.3426 85.9378 29.3159C82.5787 30.2973 79.3646 31.7198 76.3796 33.5462C75.1695 34.2797 74.0003 35.0784 72.877 35.9389C74.2336 36.8145 74.1103 38.1465 74.6776 39.6388C76.2437 38.4687 77.8924 37.4135 79.6109 36.4815C82.2532 35.0343 85.0609 33.9121 87.9728 33.1392C90.6102 32.4217 93.3302 32.0527 96.0634 32.0416C99.3138 32.0325 102.548 32.5063 105.659 33.4476C108.463 34.2712 111.104 35.5729 113.466 37.2955C115.652 38.9084 117.465 40.9739 118.781 43.3512C120.089 45.7518 120.756 48.4491 120.718 51.1827C120.865 53.7361 120.47 56.2918 119.558 58.6813C118.498 61.0617 116.45 64.663 111.949 65.1933C110.074 65.4646 110.407 67.3023 110.58 67.9189C110.826 68.7822 111.813 69.1522 113.046 68.9426C118.399 67.8203 121.273 63.4543 122.506 60.556C123.631 57.5464 124.151 54.3443 124.035 51.1334C124.087 47.8443 123.334 44.5923 121.84 41.6615" fill="#1D110D"/>
<path d="M123.776 83.2738C123.67 83.0627 123.506 82.8866 123.302 82.7664C123.099 82.6461 122.865 82.5868 122.629 82.5955C122.342 82.5978 122.062 82.6882 121.828 82.8545C121.551 83.0505 121.34 83.3257 121.223 83.6438C119.9 86.4855 118.244 89.16 116.29 91.611C114.201 94.2588 111.804 96.6478 109.149 98.7273C106.483 100.824 103.541 102.542 100.405 103.833C97.2745 105.116 93.9211 105.766 90.5382 105.745C87.9591 105.729 85.3899 105.423 82.8793 104.832C80.2989 104.215 77.8109 103.262 75.4794 101.996C73.0706 100.685 70.8475 99.0593 68.8687 97.161C66.7521 95.1275 64.9483 92.7918 63.5161 90.2297C61.9139 87.3616 60.7146 84.2864 59.9518 81.0908C59.0708 77.3244 58.6566 73.4639 58.7185 69.5962C58.7185 66.6116 58.4472 67.7463 58.8788 65.07C57.7812 65.07 56.6095 64.6753 55.6105 64.6753C55.3353 66.3055 55.2938 67.9666 55.4872 69.6086C55.565 73.88 56.0273 78.1357 56.8685 82.3241C57.7041 85.8702 59.0019 89.2911 60.7288 92.499C62.9466 96.5837 65.9898 100.162 69.6652 103.007C73.3405 105.853 77.5676 107.902 82.0776 109.026C84.8762 109.733 87.7504 110.097 90.6369 110.111C94.2837 110.127 97.8973 109.418 101.268 108.027C104.683 106.628 107.884 104.756 110.777 102.464C113.668 100.18 116.28 97.5639 118.559 94.6697C120.714 91.9801 122.536 89.0399 123.986 85.9131C124.066 85.7273 124.124 85.5327 124.159 85.3334C124.17 85.1404 124.17 84.9468 124.159 84.7538C124.174 84.2253 124.027 83.7048 123.739 83.2615" fill="#1D110D"/>
<path d="M45.855 69.0661C40.4876 68.9848 35.263 67.3248 30.8331 64.2931C29.3408 63.5285 28.3665 60.8028 28.4405 58.7432C28.4255 57.9769 28.5987 57.2187 28.9449 56.5349C29.2911 55.8512 29.7997 55.2627 30.4261 54.8212C30.4261 54.6239 30.4261 54.4019 30.4261 54.1799C30.0438 53.6742 29.6615 53.1439 29.3038 52.5889L29.2051 52.4409C27.5525 49.0246 29.6121 44.5106 31.4251 42.5743C31.3141 32.9297 36.7161 30.4631 41.4397 30.1424L41.896 29.8711C44.0913 28.5391 46.1386 27.7621 50.2086 30.7591C52.3669 28.3664 54.5499 27.1331 56.6589 27.3428C58.096 27.5043 59.4183 28.2052 60.3588 29.3038L60.5315 29.2051C63.7381 27.5524 66.6981 30.8824 68.6468 33.0901C69.1142 33.64 69.6124 34.1629 70.1391 34.6564C70.715 34.412 71.3408 34.308 71.9648 34.3531C72.5888 34.3981 73.1932 34.5908 73.728 34.9154C75.2204 35.8774 76.022 38.011 76.1084 41.23C76.1145 41.3039 76.1145 41.3781 76.1084 41.452C75.8819 43.0874 75.502 44.6978 74.9737 46.2619H75.2327C75.6219 46.1956 76.0215 46.2286 76.3946 46.358C76.7676 46.4873 77.1018 46.7088 77.3663 47.0019C78.1114 47.8716 78.669 48.8857 79.0043 49.9807C79.3396 51.0757 79.4454 52.2281 79.315 53.3659C79.4687 53.7001 79.6679 54.0113 79.907 54.2909C81.6943 56.5063 82.6962 59.2519 82.756 62.0978C82.7681 62.2998 82.7332 62.5018 82.654 62.688C82.5749 62.8742 82.4535 63.0394 82.2996 63.1708C78.6888 66.1831 74.3019 68.1164 69.6423 68.749C64.9827 69.3816 60.2392 68.6879 55.9559 66.7474C55.3022 66.4268 55.2899 65.6498 55.5612 64.7001C55.7585 63.9971 56.4739 64.0711 57.1275 64.3918C60.8508 66.032 64.9473 66.6388 68.9862 66.1483C73.025 65.6578 76.8572 64.0882 80.0797 61.6045C79.9447 59.5078 79.1553 57.5062 77.8227 55.8819C77.4369 55.499 77.1382 55.0376 76.9466 54.5289C76.7551 54.0203 76.6753 53.4764 76.7127 52.9342C76.8203 51.4754 76.3806 50.0288 75.4794 48.8766C74.875 48.9876 74.246 49.1109 73.7157 49.2589C72.1683 52.3723 70.0001 55.136 67.3446 57.3801C64.689 59.6241 61.6024 61.301 58.2745 62.3075C58.0344 62.3969 57.7723 62.4094 57.5248 62.3431C57.2772 62.2768 57.0565 62.135 56.8932 61.9375C56.7227 61.7469 56.6157 61.508 56.587 61.2539C56.5583 60.9998 56.6093 60.743 56.7329 60.5191C58.1071 57.2636 60.1912 54.3561 62.8328 52.009C65.4744 49.6619 68.6068 47.9344 72.0014 46.9526C72.7311 45.0997 73.2363 43.1661 73.5061 41.193C73.4074 38.0604 72.5811 37.2834 72.2727 37.123C71.9644 36.9627 71.5327 36.9997 70.7927 37.234C69.3744 37.8384 68.1904 36.5064 66.7104 34.8414C65.2305 33.1764 63.3558 31.0674 61.9745 31.4621V31.5361C64.5768 39.2073 65.9335 47.5693 58.2745 56.4862C58.1221 56.6558 57.9286 56.7835 57.7126 56.8569C57.4967 56.9303 57.2655 56.9471 57.0412 56.9055C56.8075 56.8572 56.5916 56.7453 56.4175 56.5821C56.2434 56.4188 56.1178 56.2106 56.0545 55.9805C53.0946 45.4726 53.8099 38.5537 58.8172 31.3141C58.5514 30.9318 58.2112 30.607 57.8171 30.3591C57.423 30.1111 56.9829 29.9452 56.5232 29.8711C55.5242 29.7848 53.8222 30.3151 51.4296 33.2627C51.3185 33.3982 51.1818 33.5104 51.0273 33.5929C50.8728 33.6754 50.7036 33.7267 50.5293 33.7437C50.3573 33.7604 50.1838 33.7428 50.0186 33.692C49.8535 33.6412 49.7001 33.5582 49.5673 33.4477C45.8673 30.4014 44.8436 30.9811 43.2897 31.9801C43.0307 32.1404 42.7593 32.3007 42.4757 32.4487C42.3023 32.5473 42.1076 32.6023 41.9083 32.6091C36.3584 32.8804 33.8671 36.161 34.1014 42.932C34.1061 43.1276 34.0677 43.3218 33.9888 43.5009C33.9099 43.6799 33.7926 43.8394 33.6451 43.968C32.4981 44.9546 30.5988 48.4943 31.4744 50.8869C32.4795 49.1575 33.9725 47.7632 35.7664 46.8786L35.9267 46.5579C36.7161 44.8806 38.233 41.933 40.6997 41.2423C41.2955 41.0973 41.9159 41.0851 42.5169 41.2066C43.118 41.328 43.685 41.5803 44.1777 41.9453L44.2763 42.0193C44.5107 42.2043 44.7696 42.4016 45.0286 42.6236C48.2022 44.8341 50.8446 47.7227 52.7643 51.0801C54.6841 54.4376 55.8332 58.1799 56.1285 62.0361C56.1667 62.3794 56.0675 62.7238 55.8526 62.9942C55.6377 63.2645 55.3246 63.4389 54.9816 63.4791C45.633 64.6261 38.085 62.3321 32.5228 56.7328C32.4467 56.7822 32.3635 56.8197 32.2761 56.8438C31.9345 56.9583 31.6347 57.1719 31.415 57.4575C31.1954 57.7431 31.0658 58.0876 31.0428 58.4472C30.8878 59.721 31.2277 61.0057 31.9924 62.0361L32.1404 62.1101C43.0923 69.3127 52.5272 65.3538 52.6259 65.3168C52.953 65.1777 53.3219 65.1744 53.6515 65.3074C53.9811 65.4404 54.2444 65.6988 54.3834 66.0259C54.5224 66.353 54.5258 66.7219 54.3928 67.0515C54.2598 67.3811 54.0013 67.6444 53.6742 67.7834C51.1726 68.7026 48.5191 69.1379 45.855 69.0661ZM33.1888 53.4769C40.0214 61.6168 48.9629 61.4565 53.2919 61.0125C51.8736 51.3679 46.5703 47.2116 43.3513 44.6833L42.6113 44.1036C42.4401 43.966 42.2416 43.8663 42.0291 43.8111C41.8165 43.7558 41.5946 43.7462 41.378 43.783C40.0707 44.1406 38.9114 46.5333 38.27 47.8159L37.8877 48.5806C37.7578 48.8338 37.5442 49.0342 37.2834 49.1479C36.3383 49.5352 35.4883 50.1227 34.7921 50.87C34.0958 51.6174 33.5699 52.5067 33.2504 53.4769M70.2501 50.4429C66.3355 52.0844 63.0323 54.909 60.8028 58.5212C64.6449 56.7641 67.9177 53.9655 70.2501 50.4429ZM60.0505 34.2001C56.6589 39.676 56.0422 45.0533 57.8552 52.7615C62.6158 45.9783 61.7525 39.713 60.0505 34.2617" fill="#1D110D"/>
<path d="M146.038 100.356L148.652 103.501C148.707 104.259 148.577 105.019 148.272 105.715C147.966 106.412 147.496 107.023 146.901 107.496C145.945 108.281 144.892 108.941 143.768 109.457C142.652 109.96 141.441 110.216 140.217 110.21C138.425 110.241 136.679 109.643 135.283 108.52C133.817 107.297 132.616 105.785 131.756 104.08C130.737 102.097 129.951 100.003 129.413 97.8396C128.82 95.491 128.358 93.111 128.031 90.711C127.711 88.2443 127.497 85.8887 127.39 83.644C127.279 81.3624 127.217 79.3274 127.217 77.5637C127.217 74.9984 127.308 72.3468 127.489 69.6088C127.661 66.8585 127.945 64.1822 128.327 61.5552C128.69 59.0652 129.18 56.5953 129.795 54.1553C130.32 52.0399 131.034 49.9761 131.929 47.9887C132.608 46.4274 133.565 45.0024 134.753 43.783C135.222 43.2943 135.785 42.9048 136.408 42.6379C137.031 42.3709 137.701 42.2319 138.379 42.2291C139.383 42.2124 140.374 42.459 141.252 42.9444C142.177 43.4881 142.923 44.2896 143.398 45.2507C144.061 46.5583 144.519 47.9601 144.755 49.407C145.105 51.4765 145.266 53.5736 145.236 55.6723C145.218 58.8474 144.879 62.0125 144.225 65.1195C143.524 68.4661 142.601 71.7622 141.462 74.9861C140.28 78.3477 138.913 81.6416 137.368 84.8527C135.789 88.1333 134.087 91.3276 132.286 94.4356C132.845 97.639 133.942 100.725 135.53 103.562C136.878 105.774 138.523 106.876 140.463 106.867C141.826 106.836 143.134 106.33 144.163 105.437C145.396 104.475 145.828 104.068 146.124 100.504M130.93 77.9337C130.93 79.8824 130.93 81.7694 131.078 83.57C131.226 85.3707 131.3 87.085 131.46 88.7253C132.804 86.2587 134.099 83.6317 135.32 80.8444C136.541 78.0571 137.627 75.2328 138.564 72.3838C139.476 69.5928 140.225 66.7514 140.808 63.8739C141.349 61.2188 141.63 58.5174 141.647 55.8079C141.776 53.1974 141.468 50.5837 140.734 48.075C140.118 46.521 139.304 45.744 138.268 45.744C137.862 45.7558 137.465 45.8637 137.109 46.0588C136.753 46.2539 136.449 46.5307 136.221 46.8664C135.465 48.0159 134.863 49.2599 134.432 50.5663C133.815 52.3327 133.312 54.1371 132.928 55.9683C132.471 58.0403 132.101 60.2726 131.793 62.6405C131.485 65.0085 131.25 67.5738 131.065 70.1021C130.88 72.6305 130.806 75.2698 130.806 77.8227" fill="#1D110D"/>
<path d="M266.397 100.121L269.024 103.266C269.081 104.034 268.948 104.803 268.636 105.507C268.324 106.21 267.843 106.826 267.236 107.299C266.282 108.087 265.229 108.746 264.103 109.26C262.988 109.765 261.776 110.022 260.551 110.012C258.76 110.041 257.015 109.444 255.618 108.323C254.161 107.095 252.962 105.59 252.091 103.895C251.074 101.907 250.288 99.8089 249.748 97.6422C249.153 95.2947 248.696 92.9144 248.379 90.5136C248.058 88.0469 247.84 85.6913 247.725 83.4466C247.614 81.165 247.552 79.13 247.552 77.3664C247.552 74.801 247.651 72.1494 247.824 69.3991C247.996 66.6488 248.28 63.9848 248.675 61.3578C249.033 58.867 249.522 56.3968 250.142 53.9579C250.658 51.8414 251.368 49.777 252.264 47.7913C252.947 46.2324 253.904 44.8082 255.088 43.5857C255.543 43.0849 256.094 42.6805 256.709 42.3967C257.323 42.1128 257.988 41.9551 258.664 41.933C259.667 41.9182 260.656 42.1602 261.538 42.636C262.46 43.188 263.205 43.9926 263.684 44.9547C264.352 46.26 264.81 47.6627 265.041 49.1109C265.391 51.1805 265.552 53.2775 265.522 55.3762C265.51 58.5517 265.171 61.7175 264.51 64.8235C263.811 68.1489 262.892 71.4244 261.76 74.6284C260.573 77.9902 259.202 81.284 257.653 84.495C256.075 87.7838 254.385 90.9781 252.584 94.0779C253.139 97.2804 254.232 100.366 255.816 103.204C257.172 105.408 258.817 106.514 260.749 106.522C262.113 106.489 263.422 105.978 264.449 105.079C265.682 104.117 266.114 103.722 266.41 100.146M251.215 77.576C251.215 79.5329 251.265 81.4075 251.363 83.2C251.462 85.0006 251.585 86.7273 251.746 88.3676C253.09 85.9009 254.385 83.274 255.606 80.4867C256.827 77.6994 257.912 74.875 258.849 72.0261C259.767 69.2368 260.517 66.3951 261.094 63.5161C261.641 60.862 261.921 58.16 261.933 55.4502C262.07 52.8395 261.761 50.2245 261.02 47.7173C260.403 46.1633 259.589 45.3863 258.553 45.3863C258.136 45.4197 257.733 45.5553 257.38 45.7811C257.028 46.0069 256.736 46.3161 256.531 46.6813C255.785 47.8023 255.192 49.0175 254.767 50.2949C254.15 52.0613 253.647 53.8657 253.263 55.6969C252.819 57.7689 252.436 60.0012 252.128 62.3692C251.82 64.7371 251.585 67.3024 251.413 69.7691C251.24 72.2357 251.141 74.9367 251.141 77.4897" fill="#1D110D"/>
<path d="M180.423 92.8569L179.646 94.6575C179.251 95.5702 178.745 96.6185 178.129 97.8025C177.512 99.0358 171.962 115.673 164.673 108.372C163.373 106.948 162.438 105.23 161.947 103.365C161.027 105.255 159.725 106.935 158.124 108.298C156.898 109.396 155.328 110.033 153.684 110.099C152.585 110.114 151.497 109.864 150.515 109.371C149.545 108.894 148.701 108.197 148.048 107.336C147.364 106.4 146.847 105.353 146.519 104.24C146.143 102.984 145.96 101.679 145.976 100.368C145.918 97.8456 146.337 95.3351 147.209 92.9679C147.954 90.9826 149.057 89.1514 150.465 87.566C151.655 86.207 153.112 85.1072 154.745 84.3346C156.154 83.6532 157.694 83.287 159.259 83.2617C160.175 83.2554 161.085 83.4098 161.947 83.718C162.681 83.982 163.387 84.3166 164.056 84.717C164.54 84.9993 164.991 85.3344 165.401 85.716C165.582 85.8752 165.755 86.044 165.919 86.2216C166.24 86.6354 166.422 87.1408 166.437 87.6646C166.445 88.1888 166.26 88.6977 165.919 89.0953C165.774 89.2853 165.587 89.4397 165.374 89.5466C165.16 89.6535 164.924 89.71 164.685 89.7119C164.449 89.7078 164.217 89.6528 164.004 89.5506C163.791 89.4485 163.603 89.3016 163.452 89.1199L163.033 88.7253C162.752 88.4893 162.451 88.2787 162.132 88.0963C161.704 87.8666 161.254 87.6807 160.788 87.5413C160.212 87.3714 159.613 87.2883 159.012 87.2946C157.93 87.3169 156.865 87.5735 155.892 88.0469C154.725 88.5973 153.694 89.3973 152.87 90.3903C151.88 91.5706 151.104 92.9145 150.576 94.3616C149.923 96.18 149.609 98.103 149.651 100.035C149.652 100.73 149.714 101.423 149.836 102.107C149.955 102.775 150.18 103.421 150.502 104.018C150.796 104.575 151.219 105.053 151.736 105.412C152.329 105.786 153.02 105.975 153.721 105.955C154.421 105.911 155.096 105.686 155.682 105.301C156.541 104.8 157.285 104.123 157.865 103.315C158.623 102.273 159.245 101.137 159.715 99.9362C160.304 98.3764 160.689 96.7474 160.862 95.0892C160.918 94.6189 161.136 94.1827 161.479 93.8559C161.638 93.6896 161.829 93.5577 162.042 93.4686C162.254 93.3795 162.482 93.335 162.712 93.3379C162.938 93.3417 163.159 93.397 163.36 93.4996C163.561 93.6022 163.736 93.7494 163.871 93.9299C164.192 94.308 164.382 94.7794 164.414 95.2742C164.414 95.9649 164.5 96.9145 164.599 98.1479C164.696 99.3986 164.911 100.637 165.24 101.848C168.94 111.357 174.17 97.6052 174.7 96.6062C175.23 95.6072 175.711 94.6329 176.131 93.6956C176.55 92.7582 176.883 91.9566 177.167 91.2289C177.315 90.8343 180.62 91.5866 180.62 92.0922C180.618 92.3501 180.568 92.6053 180.472 92.8446" fill="#1D110D"/>
<path d="M213.759 95.4838L213.155 96.5938C212.847 97.1487 212.452 97.8271 211.922 98.5424C211.391 99.2577 210.849 100.059 210.183 100.886C209.514 101.708 208.775 102.472 207.975 103.167C207.196 103.854 206.329 104.435 205.397 104.894C204.512 105.336 203.538 105.568 202.548 105.572C201.153 105.612 199.768 105.325 198.503 104.734C197.51 104.247 196.596 103.616 195.79 102.859C194.852 104.894 193.434 106.672 191.658 108.039C190.821 108.67 189.899 109.18 188.92 109.556C187.973 109.909 186.971 110.088 185.96 110.086C184.221 110.138 182.522 109.56 181.175 108.458C179.781 107.26 178.662 105.775 177.894 104.105C176.954 102.075 176.267 99.9378 175.847 97.7407C175.341 95.2296 174.966 92.6937 174.725 90.1435C174.47 87.4877 174.309 84.8032 174.244 82.0899C174.178 79.3766 174.145 76.7989 174.145 74.357C174.145 69.6827 174.293 65.6374 174.564 62.2211C174.768 59.2911 175.143 56.3755 175.687 53.4891C176.048 51.4958 176.601 49.5421 177.339 47.6555C177.831 46.4008 178.504 45.2249 179.337 44.1652C179.914 43.435 180.659 42.8552 181.508 42.4756C182.189 42.1799 182.923 42.0247 183.666 42.0192C184.753 42.0045 185.813 42.3564 186.676 43.0182C187.615 43.7664 188.37 44.7199 188.883 45.8055C189.536 47.1737 189.992 48.6268 190.24 50.1222C190.559 51.9588 190.711 53.8204 190.696 55.6845C190.68 59.0416 190.324 62.3886 189.636 65.6744C188.921 69.1567 188.007 72.5952 186.898 75.9726C185.788 79.3889 184.542 82.7559 183.198 86.0488C181.853 89.3418 180.447 92.4868 179.103 95.4344C179.275 96.8628 179.551 98.2766 179.929 99.6647C180.255 100.912 180.736 102.113 181.36 103.241C181.88 104.189 182.58 105.027 183.42 105.708C184.208 106.322 185.183 106.648 186.182 106.633C187.227 106.632 188.248 106.323 189.118 105.745C190.059 105.141 190.872 104.357 191.51 103.439C192.208 102.452 192.745 101.362 193.101 100.207C193.531 98.0038 193.77 95.7674 193.817 93.5228C193.815 92.6612 193.728 91.8019 193.558 90.9575C193.415 90.1543 193.153 89.3769 192.781 88.6512C192.459 88.0191 192.014 87.4573 191.473 86.9985C190.938 86.5728 190.27 86.35 189.586 86.3695C189.149 86.3523 188.718 86.4731 188.353 86.7148C188.066 86.9124 187.83 87.1742 187.662 87.4795C187.513 87.7365 187.421 88.0225 187.391 88.3182C187.38 88.4989 187.38 88.6801 187.391 88.8608C187.398 89.2859 187.49 89.7053 187.662 90.0941C187.898 90.5643 188.267 90.9547 188.723 91.2165C188.968 91.3792 189.168 91.6014 189.304 91.8624C189.44 92.1234 189.507 92.4146 189.5 92.7088C189.514 92.9415 189.473 93.1743 189.381 93.3885C189.289 93.6026 189.148 93.7922 188.97 93.9421C188.651 94.2371 188.232 94.4002 187.798 94.3984C187.21 94.4021 186.638 94.2113 186.17 93.8558C185.678 93.4742 185.26 93.0061 184.937 92.4745C184.601 91.9148 184.339 91.3136 184.16 90.6861C183.985 90.1142 183.894 89.5203 183.888 88.9225C183.87 88.0777 184.025 87.2381 184.345 86.4558C184.627 85.748 185.046 85.1026 185.578 84.5565C186.647 83.496 188.093 82.9018 189.599 82.9039C190.803 82.8766 191.991 83.1885 193.027 83.8042C194.026 84.4285 194.87 85.272 195.494 86.2708C196.153 87.3139 196.633 88.4605 196.912 89.6625C197.217 90.9223 197.37 92.2142 197.368 93.5104C197.368 94.2628 197.183 97.9751 197.097 98.7027C197.274 99.0318 197.471 99.349 197.689 99.6524C197.999 100.081 198.369 100.463 198.787 100.787C199.298 101.174 199.858 101.494 200.452 101.737C201.166 102.017 201.929 102.151 202.696 102.131C203.525 102.102 204.323 101.813 204.978 101.305C205.755 100.75 214.043 94.2751 214.043 94.7191C214.027 94.9696 213.968 95.2156 213.87 95.4468M178.338 89.6132C179.387 87.0725 180.435 84.4209 181.508 81.6336C182.581 78.8462 183.555 75.9973 184.406 73.099C185.267 70.2163 185.971 67.289 186.515 64.33C187.064 61.4516 187.345 58.5285 187.354 55.5981C187.354 54.5128 187.354 53.3781 187.194 52.1818C187.094 51.0737 186.9 49.9762 186.614 48.9012C186.386 48.0199 186.006 47.1852 185.492 46.4345C185.297 46.1294 185.029 45.8781 184.713 45.7035C184.396 45.529 184.04 45.4368 183.679 45.4355C183.321 45.4876 182.988 45.6517 182.729 45.9042C182.22 46.3845 181.802 46.9527 181.496 47.5815C180.986 48.6526 180.574 49.767 180.262 50.9115C179.751 52.6837 179.359 54.4885 179.091 56.3134C178.733 58.4964 178.449 61.1357 178.215 64.2067C177.981 67.2777 177.87 70.9037 177.87 75.0599C177.87 76.4413 177.87 77.8596 177.87 79.2902C177.87 80.7209 177.944 82.0899 177.981 83.3849C178.018 84.6799 178.079 85.8515 178.141 86.9492C178.203 88.0468 178.264 88.9348 178.326 89.6255" fill="#1D110D"/>
<path d="M209.036 102.982C209.576 103.961 210.331 104.804 211.243 105.449C212.215 106.089 213.361 106.412 214.524 106.374C215.837 106.382 217.114 105.947 218.15 105.141C219.31 104.222 220.31 103.118 221.11 101.872C222.053 100.448 222.859 98.9361 223.515 97.3584C224.218 95.6934 226.191 91.3645 226.191 91.3645C226.384 91.2709 226.594 91.2164 226.808 91.2041C227.033 91.2033 227.255 91.2608 227.452 91.371C227.648 91.4812 227.813 91.6404 227.93 91.8331C228.205 92.2414 228.351 92.7225 228.35 93.2144C228.364 93.3662 228.364 93.519 228.35 93.6708C228.318 93.8051 228.277 93.937 228.226 94.0654C226.869 98.4369 224.784 102.548 222.06 106.226C221.207 107.445 220.089 108.456 218.791 109.182C217.492 109.908 216.046 110.331 214.561 110.419C212.912 110.458 211.292 109.984 209.924 109.063C208.602 108.151 207.502 106.954 206.705 105.56C205.836 104.047 205.207 102.407 204.842 100.701C204.437 98.9244 204.23 97.1085 204.226 95.2864C204.219 93.6287 204.389 91.975 204.731 90.3531C205.026 88.9478 205.524 87.5932 206.211 86.3325C206.77 85.293 207.549 84.3881 208.493 83.6809C209.335 83.0661 210.349 82.7337 211.391 82.7312C212.042 82.7342 212.68 82.9086 213.241 83.2369C213.883 83.5973 214.445 84.0839 214.894 84.6675C215.427 85.3464 215.844 86.1091 216.127 86.9245C216.437 87.9014 216.586 88.9216 216.571 89.9461C216.577 91.331 216.385 92.7095 216.004 94.0408C215.635 95.2864 215.108 96.48 214.438 97.5927C213.769 98.6961 212.97 99.7148 212.057 100.627C211.153 101.526 210.157 102.328 209.085 103.019M207.852 99.5537C208.697 99.0881 209.469 98.5024 210.146 97.8147C210.827 97.1085 211.419 96.3216 211.909 95.4714C212.391 94.6266 212.771 93.7284 213.044 92.7951C213.314 91.8695 213.451 90.9103 213.451 89.9461C213.52 89.0804 213.308 88.2155 212.847 87.4795C212.693 87.237 212.482 87.0359 212.233 86.8939C211.983 86.752 211.703 86.6735 211.416 86.6655C211.067 86.658 210.721 86.7244 210.4 86.8605C210.079 86.9966 209.791 87.1991 209.554 87.4548C209.004 88.0531 208.584 88.7585 208.32 89.5268C207.972 90.4455 207.732 91.4016 207.605 92.3758C207.458 93.4011 207.384 94.4356 207.383 95.4714C207.385 96.1483 207.435 96.8241 207.531 97.4941C207.61 98.1699 207.725 98.841 207.876 99.5044" fill="#1D110D"/>
<path d="M270.837 102.871C271.378 103.679 272.034 104.402 272.786 105.017C274.187 105.984 275.897 106.393 277.584 106.164C278.76 105.976 279.885 105.551 280.892 104.915C281.899 104.279 282.766 103.445 283.442 102.464C284.511 101.003 285.452 99.451 286.254 97.8271C287.302 95.4591 288.573 92.6348 288.573 92.6348L288.869 91.4015C288.869 91.4015 289.843 94.5958 289.843 95.1014C289.843 95.2741 290.62 95.6441 290.336 96.3347C289.177 99.7306 287.441 102.901 285.206 105.708C283.557 107.823 281.254 109.332 278.657 110C276.37 110.472 273.99 110.108 271.947 108.976C269.064 107.055 267.025 104.102 266.249 100.725C265.848 98.9486 265.645 97.1327 265.645 95.3111C265.633 93.6531 265.803 91.9988 266.151 90.3778C266.443 88.964 266.942 87.601 267.631 86.3325C268.193 85.2955 268.971 84.3912 269.912 83.6809C270.757 83.0636 271.777 82.7311 272.823 82.7312C273.473 82.7342 274.112 82.9086 274.673 83.2369C275.29 83.592 275.831 84.0657 276.264 84.6305C276.807 85.3032 277.224 86.0676 277.497 86.8875C277.807 87.8642 277.957 88.8846 277.941 89.9091C277.953 91.2944 277.762 92.6738 277.374 94.0038C277.005 95.2494 276.478 96.443 275.808 97.5557C275.139 98.6591 274.34 99.6778 273.427 100.59C272.664 101.447 271.803 102.213 270.862 102.871M269.246 99.5167C270.093 99.0543 270.866 98.4682 271.54 97.7777C272.225 97.0747 272.818 96.2872 273.304 95.4344C273.794 94.5926 274.18 93.6937 274.451 92.7581C274.721 91.8325 274.858 90.8733 274.858 89.9091C274.923 89.042 274.707 88.1771 274.241 87.4425C274.089 87.2017 273.88 87.0016 273.633 86.8598C273.386 86.7179 273.108 86.6385 272.823 86.6285C272.472 86.6192 272.124 86.6848 271.801 86.8209C271.477 86.957 271.187 87.1605 270.948 87.4178C270.403 88.0192 269.984 88.7237 269.715 89.4898C269.374 90.4065 269.134 91.3577 269 92.3264C268.853 93.356 268.779 94.3945 268.778 95.4344C268.78 96.1112 268.83 96.7871 268.926 97.4571C269.012 98.1601 269.135 98.8384 269.271 99.4674" fill="#1D110D"/>
<path d="M251.98 96.1992C251.635 96.9022 251.203 97.7285 250.685 98.6658C250.167 99.6032 249.575 100.627 248.909 101.65C248.228 102.724 247.487 103.757 246.689 104.746C245.883 105.739 244.987 106.655 244.013 107.484C243.078 108.268 242.046 108.927 240.942 109.445C239.856 109.948 238.673 110.205 237.476 110.197C235.681 110.251 233.928 109.651 232.543 108.508C231.106 107.279 229.931 105.773 229.089 104.08C228.082 102.097 227.312 100.003 226.795 97.8395C226.207 95.492 225.758 93.1116 225.451 90.7109C225.13 88.2443 224.921 85.9503 224.81 83.6563C224.699 81.3623 224.649 79.352 224.649 77.5884C224.649 75.0231 224.736 72.3838 224.908 69.6334C225.081 66.8831 225.352 64.2192 225.735 61.5922C226.084 59.1017 226.566 56.6316 227.178 54.1923C227.677 52.0758 228.375 50.0112 229.262 48.0256C229.918 46.4666 230.854 45.0411 232.025 43.82C232.48 43.336 233.028 42.9489 233.636 42.6819C234.244 42.4149 234.9 42.2734 235.564 42.266C236.548 42.2509 237.519 42.4978 238.376 42.9814C239.29 43.5194 240.028 44.3123 240.498 45.263C241.142 46.5709 241.586 47.9676 241.817 49.407C242.162 51.477 242.319 53.574 242.286 55.6722C242.271 58.8422 241.941 62.0027 241.299 65.1072C240.611 68.4263 239.709 71.6973 238.598 74.8997C237.443 78.2591 236.105 81.5529 234.59 84.7663C233.036 88.0469 231.383 91.2289 229.657 94.3369C230.205 97.5285 231.276 100.608 232.826 103.451C234.15 105.663 235.741 106.769 237.599 106.769C238.967 106.751 240.281 106.239 241.299 105.326C242.504 104.323 243.584 103.18 244.518 101.922C245.47 100.652 246.332 99.3168 247.096 97.9259C247.836 96.5692 248.403 95.4592 248.823 94.6575C248.969 94.3658 249.196 94.1219 249.476 93.9546C249.748 93.8053 250.054 93.7288 250.364 93.7326C250.608 93.7231 250.85 93.7679 251.074 93.8639C251.298 93.9599 251.498 94.1046 251.659 94.2875C251.979 94.6188 252.16 95.0602 252.165 95.5209C252.143 95.7732 252.076 96.0195 251.968 96.2485M228.3 77.8227C228.3 79.7714 228.349 81.646 228.448 83.4467C228.534 85.235 228.658 86.9616 228.818 88.6019C230.138 86.1353 231.408 83.5083 232.604 80.721C233.801 77.9337 234.849 75.1217 235.774 72.2728C236.685 69.4847 237.438 66.6477 238.031 63.7752C238.561 61.1229 238.838 58.4263 238.857 55.7216C238.985 53.116 238.681 50.5072 237.957 48.001C237.353 46.447 236.551 45.67 235.49 45.67C235.088 45.7161 234.703 45.8606 234.369 46.0907C234.036 46.3209 233.764 46.6296 233.579 46.9897C232.861 48.1063 232.286 49.3077 231.864 50.5663C231.263 52.3295 230.777 54.1298 230.409 55.9559C229.965 58.0279 229.591 60.252 229.287 62.6282C228.991 64.9962 228.756 67.4875 228.584 70.0281C228.411 72.5688 228.325 75.1957 228.325 77.7487" fill="#1D110D"/>
<path d="M292.223 96.3349C291.31 96.3357 290.402 96.2112 289.522 95.9649C289.263 95.8929 289.032 95.7432 288.86 95.536C288.688 95.3288 288.583 95.0739 288.56 94.8056C288.542 94.4893 288.542 94.1722 288.56 93.8559C288.567 91.4079 289.462 89.0455 291.079 87.208C292.697 85.3704 294.927 84.1828 297.354 83.866H297.564C298.502 83.7496 299.41 83.4567 300.24 83.0027C300.429 82.9001 300.641 82.8464 300.857 82.8464C301.072 82.8464 301.284 82.9001 301.473 83.0027C301.643 83.0894 301.792 83.2112 301.912 83.3601C302.031 83.5089 302.117 83.6814 302.164 83.866C302.284 84.3726 302.363 84.8882 302.398 85.4077C302.412 85.6624 302.412 85.9176 302.398 86.1723C302.392 88.8818 301.31 91.4779 299.391 93.3904C297.471 95.3028 294.871 96.3752 292.162 96.3719M291.126 93.6339C291.469 93.6831 291.815 93.7078 292.162 93.7079C294.163 93.7079 296.082 92.9148 297.499 91.5023C298.916 90.0898 299.716 88.1732 299.722 86.1723V86.086C299.108 86.2868 298.476 86.4273 297.835 86.5053H297.625C295.873 86.7192 294.254 87.5528 293.062 88.8556C291.87 90.1584 291.183 91.8444 291.126 93.6093" fill="#1D110D"/>
</g>
<defs>
<clipPath id="clip0_268_379">
<rect width="330" height="137.318" fill="white"/>
</clipPath>
</defs>
</svg>
